;TYPE=PLATED
;Layer: PTH_Through
;EasyEDA Pro v2.1.54, 2024-04-03 12:40:51
;Gerber Generator version 0.3
M48
METRIC,LZ,000.00000
;Hole size 1 = 0.30000 METRIC
T01C0.30000
;Hole size 2 = 0.30500 METRIC
T02C0.30500
;Hole size 3 = 0.45000 METRIC
T03C0.45000
;Hole size 4 = 1.00000 METRIC
T04C1.00000
;Hole size 5 = 1.10002 METRIC
T05C1.10002
;Hole size 6 = 2.50002 METRIC
T06C2.50002
%
G05
G90
T01
X01750001Y-05670003
X03060002Y-02410001
X03420002Y-02770002
X01550000Y-05800000
X03550000Y-05800000
X03550000Y-04800000
X03550000Y-05300000
X01550000Y-05300000
X01550000Y-04800000
X01550000Y-04250000
X01550000Y-03950000
T02
X03500000Y-04650000
X03400000Y-04400000
T03
X01950000Y-03300000
X03250000Y-03300000
X02600000Y-02400000
X01600000Y-00600000
X03500000Y-00600000
X02600000Y-00600000
X01600000Y-01500000
X02600000Y-01500000
X03500000Y-02100000
X02900000Y-02000000
X01600000Y-02000000
X01900000Y-02400000
X02600000Y-02900000
T04
X02219000Y-02200000
X02473000Y-02200000
X02727000Y-02200000
X02981000Y-02200000
X02950002Y-01735504
X02700002Y-01735504
X02500003Y-01735504
X02250003Y-01735504
T05
X02981000Y-02200000
X02727000Y-02200000
X02473000Y-02200000
X02219000Y-02200000
T06
X03257002Y-01464504
X01943004Y-01464504
M30