G04 Layer: BottomLayer*
G04 EasyEDA Pro v2.1.54, 2024-04-03 12:40:51*
G04 Gerber Generator version 0.3*
G04 Scale: 100 percent, Rotated: No, Reflected: No*
G04 Dimensions in millimeters*
G04 Leading zeros omitted, absolute positions, 3 integers and 5 decimals*
%FSLAX35Y35*%
%MOMM*%
%ADD8191C,0.2032*%
%ADD10C,0.254*%
%ADD11R,1.7X1.7*%
%ADD12C,1.7*%
%ADD13C,1.6*%
%ADD14C,3.3011*%
%ADD15C,3.29999*%
%ADD16R,2.0X1.2*%
%ADD17R,1.2X2.0*%
%ADD18C,0.61*%
%ADD19C,0.5*%
%ADD20C,0.6*%
%ADD21C,0.718*%
G75*


G04 Copper Start*
G36*
G01X1485814Y-5864186D02*
G01X1485814Y-485814D01*
G01X3614186D01*
G01Y-5864186D01*
G01X1485814D01*
G37*
%LPC*%
G36*
G01X3299991Y-5851052D02*
G03X3335805Y-5815238I0J35814D01*
G01Y-5763377D01*
G03X3349999Y-5766310I14194J32881D01*
G01X3549998D01*
G03X3585812Y-5730496I0J35814D01*
G01Y-5610496D01*
G03X3549998Y-5574682I-35814J0D01*
G01X3349999D01*
G03X3335805Y-5577615I0J-35814D01*
G01Y-5509377D01*
G03X3349999Y-5512310I14194J32881D01*
G01X3549998D01*
G03X3585812Y-5476496I0J35814D01*
G01Y-5356496D01*
G03X3549998Y-5320682I-35814J0D01*
G01X3349999D01*
G03X3335805Y-5323615I0J-35814D01*
G01Y-5255377D01*
G03X3349999Y-5258310I14194J32881D01*
G01X3549998D01*
G03X3585812Y-5222496I0J35814D01*
G01Y-5102496D01*
G03X3549998Y-5066682I-35814J0D01*
G01X3349999D01*
G03X3335805Y-5069615I0J-35814D01*
G01Y-5001377D01*
G03X3349999Y-5004310I14194J32881D01*
G01X3549998D01*
G03X3585812Y-4968496I0J35814D01*
G01Y-4848496D01*
G03X3549998Y-4812682I-35814J0D01*
G01X3349999D01*
G03X3335805Y-4815615I0J-35814D01*
G01Y-4747377D01*
G03X3349999Y-4750310I14194J32881D01*
G01X3549998D01*
G03X3585812Y-4714496I0J35814D01*
G01Y-4594496D01*
G03X3549998Y-4558682I-35814J0D01*
G01X3349999D01*
G03X3335805Y-4561615I0J-35814D01*
G01Y-4493377D01*
G03X3349999Y-4496310I14194J32881D01*
G01X3549998D01*
G03X3585812Y-4460496I0J35814D01*
G01Y-4340496D01*
G03X3549998Y-4304682I-35814J0D01*
G01X3349999D01*
G03X3335805Y-4307615I0J-35814D01*
G01Y-4239377D01*
G03X3349999Y-4242310I14194J32881D01*
G01X3549998D01*
G03X3585812Y-4206496I0J35814D01*
G01Y-4086496D01*
G03X3549998Y-4050682I-35814J0D01*
G01X3349999D01*
G03X3335805Y-4053615I0J-35814D01*
G01Y-3985377D01*
G03X3349999Y-3988310I14194J32881D01*
G01X3549998D01*
G03X3585812Y-3952496I0J35814D01*
G01Y-3832496D01*
G03X3549998Y-3796682I-35814J0D01*
G01X3349999D01*
G03X3335805Y-3799615I0J-35814D01*
G01Y-3731377D01*
G03X3349999Y-3734310I14194J32881D01*
G01X3549998D01*
G03X3585812Y-3698496I0J35814D01*
G01Y-3578496D01*
G03X3549998Y-3542682I-35814J0D01*
G01X3349999D01*
G03X3314185Y-3578496I0J-35814D01*
G01Y-3612356D01*
G03X3299991Y-3609423I-14194J-32881D01*
G01X3203801D01*
G01Y-3429505D01*
G03X3167987Y-3393691I-35814J0D01*
G01X3047988D01*
G03X3012174Y-3429505I0J-35814D01*
G01Y-3609423D01*
G01X2949801D01*
G01Y-3429505D01*
G03X2913987Y-3393691I-35814J0D01*
G01X2793988D01*
G03X2758174Y-3429505I0J-35814D01*
G01Y-3609423D01*
G01X2695801D01*
G01Y-3429505D01*
G03X2659987Y-3393691I-35814J0D01*
G01X2539988D01*
G03X2504174Y-3429505I0J-35814D01*
G01Y-3609423D01*
G01X2441801D01*
G01Y-3429505D01*
G03X2405987Y-3393691I-35814J0D01*
G01X2285988D01*
G03X2250174Y-3429505I0J-35814D01*
G01Y-3609423D01*
G01X2187801D01*
G01Y-3429505D01*
G03X2151987Y-3393691I-35814J0D01*
G01X2031988D01*
G03X1996174Y-3429505I0J-35814D01*
G01Y-3609423D01*
G01X1899994D01*
G03X1885816Y-3612349I0J-35814D01*
G01Y-3578496D01*
G03X1850002Y-3542682I-35814J0D01*
G01X1846763D01*
G02X1821716Y-3502596I19553J40086D01*
G03X1800711Y-3451887I-71714J0D01*
G01X1761446Y-3412621D01*
G01Y-2339973D01*
G01X2029705Y-2071714D01*
G01X2532409D01*
G03X2583118Y-2050710I0J71714D01*
G01X2742809Y-1891019D01*
G03X2763809Y-1841190I-50709J50709D01*
G01X2763899Y-1839037D01*
G01X2764008Y-1838212D01*
G01X2764125Y-1837696D01*
G01X2764254Y-1837306D01*
G01X2764445Y-1836864D01*
G01X2764786Y-1836234D01*
G01X2765370Y-1835323D01*
G01X2766168Y-1834239D01*
G01X2768241Y-1831767D01*
G01X2779863Y-1819664D01*
G01X2780311Y-1819189D01*
G01X2783383Y-1815871D01*
G03X2786860Y-1812100I-83383J80375D01*
G03X2815814Y-1735496I-86860J76604D01*
G03X2700000Y-1619683I-115814J0D01*
G03X2600000Y-1677076I0J-115814D01*
G03X2500000Y-1619683I-100000J-58420D01*
G03X2384186Y-1735496I0J-115814D01*
G03X2412701Y-1811600I115814J0D01*
G01X2415033Y-1814433D01*
G01X2417131Y-1817324D01*
G01X2419290Y-1820673D01*
G01X2421384Y-1824328D01*
G01X2421643Y-1824840D01*
G01X2410296Y-1836186D01*
G01X2307236D01*
G03X2365827Y-1735496I-57222J100690D01*
G03X2250013Y-1619683I-115814J0D01*
G03X2134200Y-1735496I0J-115814D01*
G03X2192791Y-1836186I115814J0D01*
G01X1961851D01*
G03X1911142Y-1857191I0J-71714D01*
G01X1546922Y-2221410D01*
G03X1525918Y-2272119I50709J-50709D01*
G01Y-3740126D01*
G03X1546922Y-3790835I71714J0D01*
G01X1548522Y-3792435D01*
G02X1614188Y-3922058I-165064J-165064D01*
G01Y-3952496D01*
G03X1650002Y-3988310I35814J0D01*
G01X1850002D01*
G03X1864180Y-3985384I0J35814D01*
G01Y-4053608D01*
G03X1850002Y-4050682I-14178J-32888D01*
G01X1650002D01*
G03X1614188Y-4086496I0J-35814D01*
G01Y-4206496D01*
G03X1650002Y-4242310I35814J0D01*
G01X1850002D01*
G03X1864180Y-4239384I0J35814D01*
G01Y-4307608D01*
G03X1850002Y-4304682I-14178J-32888D01*
G01X1650002D01*
G03X1614188Y-4340496I0J-35814D01*
G01Y-4460496D01*
G03X1650002Y-4496310I35814J0D01*
G01X1850002D01*
G03X1864180Y-4493384I0J35814D01*
G01Y-4561608D01*
G03X1850002Y-4558682I-14178J-32888D01*
G01X1650002D01*
G03X1614188Y-4594496I0J-35814D01*
G01Y-4714496D01*
G03X1650002Y-4750310I35814J0D01*
G01X1850002D01*
G03X1864180Y-4747384I0J35814D01*
G01Y-4815608D01*
G03X1850002Y-4812682I-14178J-32888D01*
G01X1650002D01*
G03X1614188Y-4848496I0J-35814D01*
G01Y-4968496D01*
G03X1650002Y-5004310I35814J0D01*
G01X1850002D01*
G03X1864180Y-5001384I0J35814D01*
G01Y-5069608D01*
G03X1850002Y-5066682I-14178J-32888D01*
G01X1650002D01*
G03X1614188Y-5102496I0J-35814D01*
G01Y-5222496D01*
G03X1650002Y-5258310I35814J0D01*
G01X1850002D01*
G03X1864180Y-5255384I0J35814D01*
G01Y-5323608D01*
G03X1850002Y-5320682I-14178J-32888D01*
G01X1650002D01*
G03X1614188Y-5356496I0J-35814D01*
G01Y-5476496D01*
G03X1650002Y-5512310I35814J0D01*
G01X1850002D01*
G03X1864180Y-5509384I0J35814D01*
G01Y-5577608D01*
G03X1850002Y-5574682I-14178J-32888D01*
G01X1650002D01*
G03X1614188Y-5610496I0J-35814D01*
G01Y-5730496D01*
G03X1650002Y-5766310I35814J0D01*
G01X1850002D01*
G03X1864180Y-5763384I0J35814D01*
G01Y-5815238D01*
G03X1899994Y-5851052I35814J0D01*
G01X3299991D01*
G37*
G36*
G01X3256996Y-1665317D02*
G03X3457810Y-1464504I0J200814D01*
G03X3256996Y-1263690I-200814J0D01*
G03X3056183Y-1464504I0J-200814D01*
G03X3256996Y-1665317I200814J0D01*
G37*
G36*
G01X1742190Y-1464504D02*
G03X1943004Y-1665317I200814J0D01*
G03X2143817Y-1464504I0J200814D01*
G03X1943004Y-1263690I-200814J0D01*
G03X1742190Y-1464504I0J-200814D01*
G37*
G36*
G01X2860186Y-2285000D02*
G03X2896000Y-2320814I35814J0D01*
G01X3066000D01*
G03X3101814Y-2285000I0J35814D01*
G01Y-2115000D01*
G03X3066000Y-2079186I-35814J0D01*
G01X2896000D01*
G03X2860186Y-2115000I0J-35814D01*
G01Y-2285000D01*
G37*
G36*
G01X2352186Y-2200000D02*
G03X2473000Y-2320814I120814J0D01*
G03X2593814Y-2200000I0J120814D01*
G03X2473000Y-2079186I-120814J0D01*
G03X2352186Y-2200000I0J-120814D01*
G37*
G36*
G01X2219000Y-2320814D02*
G03X2339814Y-2200000I0J120814D01*
G03X2219000Y-2079186I-120814J0D01*
G03X2098186Y-2200000I0J-120814D01*
G03X2219000Y-2320814I120814J0D01*
G37*
G36*
G01X2606186Y-2200000D02*
G03X2727000Y-2320814I120814J0D01*
G03X2847814Y-2200000I0J120814D01*
G03X2727000Y-2079186I-120814J0D01*
G03X2606186Y-2200000I0J-120814D01*
G37*
G36*
G01X2834198Y-1735496D02*
G03X2950012Y-1851310I115814J0D01*
G03X3065826Y-1735496I0J115814D01*
G03X2950012Y-1619683I-115814J0D01*
G03X2834198Y-1735496I0J-115814D01*
G37*
%LPD*%
G54D8191*
G01X1485814Y-5864186D02*
G01X1485814Y-485814D01*
G01X3614186D01*
G01Y-5864186D01*
G01X1485814D01*
G01X3299991Y-5851052D02*
G03X3335805Y-5815238I0J35814D01*
G01Y-5763377D01*
G03X3349999Y-5766310I14194J32881D01*
G01X3549998D01*
G03X3585812Y-5730496I0J35814D01*
G01Y-5610496D01*
G03X3549998Y-5574682I-35814J0D01*
G01X3349999D01*
G03X3335805Y-5577615I0J-35814D01*
G01Y-5509377D01*
G03X3349999Y-5512310I14194J32881D01*
G01X3549998D01*
G03X3585812Y-5476496I0J35814D01*
G01Y-5356496D01*
G03X3549998Y-5320682I-35814J0D01*
G01X3349999D01*
G03X3335805Y-5323615I0J-35814D01*
G01Y-5255377D01*
G03X3349999Y-5258310I14194J32881D01*
G01X3549998D01*
G03X3585812Y-5222496I0J35814D01*
G01Y-5102496D01*
G03X3549998Y-5066682I-35814J0D01*
G01X3349999D01*
G03X3335805Y-5069615I0J-35814D01*
G01Y-5001377D01*
G03X3349999Y-5004310I14194J32881D01*
G01X3549998D01*
G03X3585812Y-4968496I0J35814D01*
G01Y-4848496D01*
G03X3549998Y-4812682I-35814J0D01*
G01X3349999D01*
G03X3335805Y-4815615I0J-35814D01*
G01Y-4747377D01*
G03X3349999Y-4750310I14194J32881D01*
G01X3549998D01*
G03X3585812Y-4714496I0J35814D01*
G01Y-4594496D01*
G03X3549998Y-4558682I-35814J0D01*
G01X3349999D01*
G03X3335805Y-4561615I0J-35814D01*
G01Y-4493377D01*
G03X3349999Y-4496310I14194J32881D01*
G01X3549998D01*
G03X3585812Y-4460496I0J35814D01*
G01Y-4340496D01*
G03X3549998Y-4304682I-35814J0D01*
G01X3349999D01*
G03X3335805Y-4307615I0J-35814D01*
G01Y-4239377D01*
G03X3349999Y-4242310I14194J32881D01*
G01X3549998D01*
G03X3585812Y-4206496I0J35814D01*
G01Y-4086496D01*
G03X3549998Y-4050682I-35814J0D01*
G01X3349999D01*
G03X3335805Y-4053615I0J-35814D01*
G01Y-3985377D01*
G03X3349999Y-3988310I14194J32881D01*
G01X3549998D01*
G03X3585812Y-3952496I0J35814D01*
G01Y-3832496D01*
G03X3549998Y-3796682I-35814J0D01*
G01X3349999D01*
G03X3335805Y-3799615I0J-35814D01*
G01Y-3731377D01*
G03X3349999Y-3734310I14194J32881D01*
G01X3549998D01*
G03X3585812Y-3698496I0J35814D01*
G01Y-3578496D01*
G03X3549998Y-3542682I-35814J0D01*
G01X3349999D01*
G03X3314185Y-3578496I0J-35814D01*
G01Y-3612356D01*
G03X3299991Y-3609423I-14194J-32881D01*
G01X3203801D01*
G01Y-3429505D01*
G03X3167987Y-3393691I-35814J0D01*
G01X3047988D01*
G03X3012174Y-3429505I0J-35814D01*
G01Y-3609423D01*
G01X2949801D01*
G01Y-3429505D01*
G03X2913987Y-3393691I-35814J0D01*
G01X2793988D01*
G03X2758174Y-3429505I0J-35814D01*
G01Y-3609423D01*
G01X2695801D01*
G01Y-3429505D01*
G03X2659987Y-3393691I-35814J0D01*
G01X2539988D01*
G03X2504174Y-3429505I0J-35814D01*
G01Y-3609423D01*
G01X2441801D01*
G01Y-3429505D01*
G03X2405987Y-3393691I-35814J0D01*
G01X2285988D01*
G03X2250174Y-3429505I0J-35814D01*
G01Y-3609423D01*
G01X2187801D01*
G01Y-3429505D01*
G03X2151987Y-3393691I-35814J0D01*
G01X2031988D01*
G03X1996174Y-3429505I0J-35814D01*
G01Y-3609423D01*
G01X1899994D01*
G03X1885816Y-3612349I0J-35814D01*
G01Y-3578496D01*
G03X1850002Y-3542682I-35814J0D01*
G01X1846763D01*
G02X1821716Y-3502596I19553J40086D01*
G03X1800711Y-3451887I-71714J0D01*
G01X1761446Y-3412621D01*
G01Y-2339973D01*
G01X2029705Y-2071714D01*
G01X2532409D01*
G03X2583118Y-2050710I0J71714D01*
G01X2742809Y-1891019D01*
G03X2763809Y-1841190I-50709J50709D01*
G01X2763899Y-1839037D01*
G01X2764008Y-1838212D01*
G01X2764125Y-1837696D01*
G01X2764254Y-1837306D01*
G01X2764445Y-1836864D01*
G01X2764786Y-1836234D01*
G01X2765370Y-1835323D01*
G01X2766168Y-1834239D01*
G01X2768241Y-1831767D01*
G01X2779863Y-1819664D01*
G01X2780311Y-1819189D01*
G01X2783383Y-1815871D01*
G03X2786860Y-1812100I-83383J80375D01*
G03X2815814Y-1735496I-86860J76604D01*
G03X2700000Y-1619683I-115814J0D01*
G03X2600000Y-1677076I0J-115814D01*
G03X2500000Y-1619683I-100000J-58420D01*
G03X2384186Y-1735496I0J-115814D01*
G03X2412701Y-1811600I115814J0D01*
G01X2415033Y-1814433D01*
G01X2417131Y-1817324D01*
G01X2419290Y-1820673D01*
G01X2421384Y-1824328D01*
G01X2421643Y-1824840D01*
G01X2410296Y-1836186D01*
G01X2307236D01*
G03X2365827Y-1735496I-57222J100690D01*
G03X2250013Y-1619683I-115814J0D01*
G03X2134200Y-1735496I0J-115814D01*
G03X2192791Y-1836186I115814J0D01*
G01X1961851D01*
G03X1911142Y-1857191I0J-71714D01*
G01X1546922Y-2221410D01*
G03X1525918Y-2272119I50709J-50709D01*
G01Y-3740126D01*
G03X1546922Y-3790835I71714J0D01*
G01X1548522Y-3792435D01*
G02X1614188Y-3922058I-165064J-165064D01*
G01Y-3952496D01*
G03X1650002Y-3988310I35814J0D01*
G01X1850002D01*
G03X1864180Y-3985384I0J35814D01*
G01Y-4053608D01*
G03X1850002Y-4050682I-14178J-32888D01*
G01X1650002D01*
G03X1614188Y-4086496I0J-35814D01*
G01Y-4206496D01*
G03X1650002Y-4242310I35814J0D01*
G01X1850002D01*
G03X1864180Y-4239384I0J35814D01*
G01Y-4307608D01*
G03X1850002Y-4304682I-14178J-32888D01*
G01X1650002D01*
G03X1614188Y-4340496I0J-35814D01*
G01Y-4460496D01*
G03X1650002Y-4496310I35814J0D01*
G01X1850002D01*
G03X1864180Y-4493384I0J35814D01*
G01Y-4561608D01*
G03X1850002Y-4558682I-14178J-32888D01*
G01X1650002D01*
G03X1614188Y-4594496I0J-35814D01*
G01Y-4714496D01*
G03X1650002Y-4750310I35814J0D01*
G01X1850002D01*
G03X1864180Y-4747384I0J35814D01*
G01Y-4815608D01*
G03X1850002Y-4812682I-14178J-32888D01*
G01X1650002D01*
G03X1614188Y-4848496I0J-35814D01*
G01Y-4968496D01*
G03X1650002Y-5004310I35814J0D01*
G01X1850002D01*
G03X1864180Y-5001384I0J35814D01*
G01Y-5069608D01*
G03X1850002Y-5066682I-14178J-32888D01*
G01X1650002D01*
G03X1614188Y-5102496I0J-35814D01*
G01Y-5222496D01*
G03X1650002Y-5258310I35814J0D01*
G01X1850002D01*
G03X1864180Y-5255384I0J35814D01*
G01Y-5323608D01*
G03X1850002Y-5320682I-14178J-32888D01*
G01X1650002D01*
G03X1614188Y-5356496I0J-35814D01*
G01Y-5476496D01*
G03X1650002Y-5512310I35814J0D01*
G01X1850002D01*
G03X1864180Y-5509384I0J35814D01*
G01Y-5577608D01*
G03X1850002Y-5574682I-14178J-32888D01*
G01X1650002D01*
G03X1614188Y-5610496I0J-35814D01*
G01Y-5730496D01*
G03X1650002Y-5766310I35814J0D01*
G01X1850002D01*
G03X1864180Y-5763384I0J35814D01*
G01Y-5815238D01*
G03X1899994Y-5851052I35814J0D01*
G01X3299991D01*
G01X3256996Y-1665317D02*
G03X3457810Y-1464504I0J200814D01*
G03X3256996Y-1263690I-200814J0D01*
G03X3056183Y-1464504I0J-200814D01*
G03X3256996Y-1665317I200814J0D01*
G01X1742190Y-1464504D02*
G03X1943004Y-1665317I200814J0D01*
G03X2143817Y-1464504I0J200814D01*
G03X1943004Y-1263690I-200814J0D01*
G03X1742190Y-1464504I0J-200814D01*
G01X2860186Y-2285000D02*
G03X2896000Y-2320814I35814J0D01*
G01X3066000D01*
G03X3101814Y-2285000I0J35814D01*
G01Y-2115000D01*
G03X3066000Y-2079186I-35814J0D01*
G01X2896000D01*
G03X2860186Y-2115000I0J-35814D01*
G01Y-2285000D01*
G01X2352186Y-2200000D02*
G03X2473000Y-2320814I120814J0D01*
G03X2593814Y-2200000I0J120814D01*
G03X2473000Y-2079186I-120814J0D01*
G03X2352186Y-2200000I0J-120814D01*
G01X2219000Y-2320814D02*
G03X2339814Y-2200000I0J120814D01*
G03X2219000Y-2079186I-120814J0D01*
G03X2098186Y-2200000I0J-120814D01*
G03X2219000Y-2320814I120814J0D01*
G01X2606186Y-2200000D02*
G03X2727000Y-2320814I120814J0D01*
G03X2847814Y-2200000I0J120814D01*
G03X2727000Y-2079186I-120814J0D01*
G03X2606186Y-2200000I0J-120814D01*
G01X2834198Y-1735496D02*
G03X2950012Y-1851310I115814J0D01*
G03X3065826Y-1735496I0J115814D01*
G03X2950012Y-1619683I-115814J0D01*
G03X2834198Y-1735496I0J-115814D01*
G54D10*
G01X1750002Y-5416496D02*
G01X1624094Y-5416496D01*
G01X1750002Y-5416496D02*
G01X1750002Y-5330588D01*
G01X1750002Y-5416496D02*
G01X1750002Y-5502404D01*
G01X1943004Y-1464504D02*
G01X2133911Y-1464504D01*
G01X1943004Y-1464504D02*
G01X1752096Y-1464504D01*
G01X1943004Y-1464504D02*
G01X1943004Y-1655411D01*
G01X1943004Y-1464504D02*
G01X1943004Y-1273596D01*
G01X2219000Y-2200000D02*
G01X2329908Y-2200000D01*
G01X2219000Y-2200000D02*
G01X2108092Y-2200000D01*
G01X2219000Y-2200000D02*
G01X2219000Y-2310908D01*
G01X2219000Y-2200000D02*
G01X2219000Y-2089092D01*
G01X2250013Y-1735496D02*
G01X2355921Y-1735496D01*
G01X2250013Y-1735496D02*
G01X2144106Y-1735496D01*
G01X2250013Y-1735496D02*
G01X2250013Y-1629589D01*
G01X3256996Y-1464504D02*
G01X3447904Y-1464504D01*
G01X3256996Y-1464504D02*
G01X3066089Y-1464504D01*
G01X3256996Y-1464504D02*
G01X3256996Y-1655411D01*
G01X3256996Y-1464504D02*
G01X3256996Y-1273596D01*
G04 Copper End*

G04 Tear Start*
G36*
G01X2656200Y-1840309D02*
G01X2728000Y-1840309D01*
G01X2728184Y-1835939D01*
G01X2728719Y-1831878D01*
G01X2729582Y-1828092D01*
G01X2730750Y-1824546D01*
G01X2732199Y-1821208D01*
G01X2733906Y-1818042D01*
G01X2735847Y-1815015D01*
G01X2738000Y-1812092D01*
G01X2741573Y-1807831D01*
G01X2754031Y-1794858D01*
G01X2760000Y-1788411D01*
G01X2640000D01*
G01X2642009Y-1790882D01*
G01X2643880Y-1793564D01*
G01X2645613Y-1796433D01*
G01X2647209Y-1799467D01*
G01X2649351Y-1804277D01*
G01X2651194Y-1809327D01*
G01X2652741Y-1814539D01*
G01X2653998Y-1819836D01*
G01X2654968Y-1825140D01*
G01X2655655Y-1830372D01*
G01X2656065Y-1835454D01*
G01X2656200Y-1840309D01*
G37*
G36*
G01X2464100Y-1844411D02*
G01X2535900Y-1844411D01*
G01X2536039Y-1840930D01*
G01X2536441Y-1837335D01*
G01X2537092Y-1833649D01*
G01X2537971Y-1829897D01*
G01X2539683Y-1824197D01*
G01X2541811Y-1818482D01*
G01X2544296Y-1812833D01*
G01X2547079Y-1807331D01*
G01X2550101Y-1802057D01*
G01X2553301Y-1797092D01*
G01X2556621Y-1792516D01*
G01X2560000Y-1788411D01*
G01X2440000D01*
G01X2443379Y-1792516D01*
G01X2446699Y-1797092D01*
G01X2449900Y-1802057D01*
G01X2452921Y-1807331D01*
G01X2455705Y-1812833D01*
G01X2458190Y-1818482D01*
G01X2460318Y-1824197D01*
G01X2462029Y-1829897D01*
G01X2462909Y-1833649D01*
G01X2463559Y-1837335D01*
G01X2463962Y-1840930D01*
G01X2464100Y-1844411D01*
G37*
G36*
G01X1785902Y-3502596D02*
G01X1714102Y-3502596D01*
G02X1660252Y-3578496I-80414J-0D01*
G01X1839752D01*
G02X1785902Y-3502596I26564J75900D01*
G37*
G36*
G01X1664617Y-3756341D02*
G01X1573847Y-3767111D01*
G02X1650002Y-3919422I-190388J-190388D01*
G01X1751482Y-3832496D01*
G02X1664617Y-3756341I536195J699216D01*
G37*
G04 Tear End*

G04 Pad Start*
G54D11*
G01X2981000Y-2200000D03*
G54D12*
G01X2727000Y-2200000D03*
G01X2473000Y-2200000D03*
G01X2219000Y-2200000D03*
G54D13*
G01X2219000Y-2200000D03*
G01X2473000Y-2200000D03*
G01X2727000Y-2200000D03*
G01X2981000Y-2200000D03*
G01X2950012Y-1735496D03*
G01X2700000Y-1735496D03*
G01X2500000Y-1735496D03*
G01X2250014Y-1735496D03*
G54D15*
G01X3256997Y-1464504D03*
G01X1943004Y-1464504D03*
G54D16*
G01X3449998Y-5670496D03*
G01X3449998Y-5416496D03*
G01X3449998Y-5162496D03*
G01X3449998Y-4908496D03*
G01X3449998Y-4654496D03*
G01X3449998Y-4400496D03*
G01X3449998Y-4146496D03*
G01X3449998Y-3892496D03*
G01X3449998Y-3638496D03*
G54D17*
G01X3107987Y-3529504D03*
G01X2853987Y-3529504D03*
G01X2599987Y-3529504D03*
G01X2345987Y-3529504D03*
G01X2091987Y-3529504D03*
G54D16*
G01X1750002Y-3638496D03*
G01X1750002Y-3892496D03*
G01X1750002Y-4146496D03*
G01X1750002Y-4400496D03*
G01X1750002Y-4654496D03*
G01X1750002Y-4908496D03*
G01X1750002Y-5162496D03*
G01X1750002Y-5416496D03*
G01X1750002Y-5670496D03*
G04 Pad End*

G04 Via Start*
G54D18*
G01X3500000Y-4650000D03*
G01X3400000Y-4400000D03*
G54D19*
G01X1750001Y-5670003D03*
G54D20*
G01X1950000Y-3300000D03*
G01X3250000Y-3300000D03*
G01X2600000Y-2400000D03*
G01X1600000Y-600000D03*
G01X3500000Y-600000D03*
G01X2600000Y-600000D03*
G01X1600000Y-1500000D03*
G01X2600000Y-1500000D03*
G01X3500000Y-2100000D03*
G01X2900000Y-2000000D03*
G01X1600000Y-2000000D03*
G01X1900000Y-2400000D03*
G01X2600000Y-2900000D03*
G54D19*
G01X3060002Y-2410001D03*
G01X3420002Y-2770002D03*
G01X1550000Y-5800000D03*
G01X3550000Y-5800000D03*
G01X3550000Y-4800000D03*
G01X3550000Y-5300000D03*
G01X1550000Y-5300000D03*
G01X1550000Y-4800000D03*
G01X1550000Y-4250000D03*
G01X1550000Y-3950000D03*
G04 Via End*

G04 Track Start*
G54D10*
G01X2473000Y-2177000D02*
G01X2473000Y-2200000D01*
G54D21*
G01X1750002Y-3892496D02*
G01X1597632Y-3740126D01*
G01X2440001Y-1907900D02*
G01X1961851Y-1907900D01*
G01X1750002Y-3502596D02*
G01X1750002Y-3638496D01*
G01X1689732Y-3442326D02*
G01X1750002Y-3502596D01*
G01X2000000Y-2000000D02*
G01X1689732Y-2310268D01*
G01X2695372Y-1735496D02*
G01X2692100Y-1738769D01*
G01X2700000Y-1735496D02*
G01X2695372Y-1735496D01*
G01X1597632Y-3740126D02*
G01X1597632Y-2272119D01*
G01X1961851Y-1907900D01*
G01X1689732Y-2310268D02*
G01X1689732Y-3442326D01*
G01X2500000Y-1735496D02*
G01X2500000Y-1847901D01*
G01X2440001Y-1907900D01*
G01X2692100Y-1738769D02*
G01X2692100Y-1840309D01*
G01X2532409Y-2000000D01*
G01X2000000D01*
G04 Track End*

M02*
