G04 Layer: BottomSilkscreenLayer*
G04 EasyEDA Pro v2.1.54, 2024-04-03 12:40:51*
G04 Gerber Generator version 0.3*
G04 Scale: 100 percent, Rotated: No, Reflected: No*
G04 Dimensions in millimeters*
G04 Leading zeros omitted, absolute positions, 3 integers and 5 decimals*
%FSLAX35Y35*%
%MOMM*%
%ADD10C,0.254*%
G75*


G04 Text Start*
G36*
G01X2221992Y-2345741D02*
G01X2215744Y-2345893D01*
G01X2213356Y-2346198D01*
G01X2208784Y-2347112D01*
G01X2207108Y-2347570D01*
G01X2204415Y-2348484D01*
G01X2203196Y-2348941D01*
G01X2202129Y-2349398D01*
G01X2199386Y-2350770D01*
G01X2197862Y-2351684D01*
G01X2195779Y-2353158D01*
G01X2192579Y-2355901D01*
G01X2190750Y-2358187D01*
G01X2189531Y-2360016D01*
G01X2188921Y-2361082D01*
G01X2188312Y-2362403D01*
G01X2187753Y-2363927D01*
G01X2186686Y-2367128D01*
G01X2186076Y-2370176D01*
G01X2185772Y-2372563D01*
G01X2185670Y-2385619D01*
G01X2193798D01*
G01X2193950Y-2375611D01*
G01X2194103Y-2374392D01*
G01X2194255Y-2372868D01*
G01X2194560Y-2371344D01*
G01X2195170Y-2368956D01*
G01X2195627Y-2367737D01*
G01X2196795Y-2365299D01*
G01X2197557Y-2364080D01*
G01X2198472Y-2363013D01*
G01X2199996Y-2361540D01*
G01X2200758Y-2360930D01*
G01X2201824Y-2360168D01*
G01X2203044Y-2359406D01*
G01X2204263Y-2358796D01*
G01X2205584Y-2358187D01*
G01X2207108Y-2357577D01*
G01X2209089Y-2356968D01*
G01X2210613Y-2356510D01*
G01X2214220Y-2355901D01*
G01X2217877Y-2355596D01*
G01X2221230Y-2355444D01*
G01X2224532Y-2355596D01*
G01X2228190Y-2355901D01*
G01X2230018Y-2356206D01*
G01X2232406Y-2356663D01*
G01X2233930Y-2357120D01*
G01X2235149Y-2357425D01*
G01X2236368Y-2357882D01*
G01X2238807Y-2359101D01*
G01X2240026Y-2359863D01*
G01X2241042Y-2360625D01*
G01X2241804Y-2361082D01*
G01X2242566Y-2361692D01*
G01X2244395Y-2363470D01*
G01X2245309Y-2364689D01*
G01X2246071Y-2365756D01*
G01X2246833Y-2367128D01*
G01X2247443Y-2368499D01*
G01X2247900Y-2370176D01*
G01X2248205Y-2371649D01*
G01X2248510Y-2374392D01*
G01X2248662Y-2385162D01*
G01Y-2395474D01*
G01X2221382D01*
G01X2193950Y-2395322D01*
G01X2193798Y-2385619D01*
G01X2185670D01*
G01X2185619Y-2388921D01*
G01Y-2404872D01*
G01X2256841D01*
G01Y-2389073D01*
G01X2256688Y-2372868D01*
G01X2256384Y-2370176D01*
G01X2256079Y-2368499D01*
G01X2255622Y-2366366D01*
G01X2254707Y-2363622D01*
G01X2254098Y-2362251D01*
G01X2252726Y-2359558D01*
G01X2251202Y-2357425D01*
G01X2250288Y-2356358D01*
G01X2247290Y-2353310D01*
G01X2246528Y-2352751D01*
G01X2244395Y-2351227D01*
G01X2242261Y-2350008D01*
G01X2241347Y-2349551D01*
G01X2240280Y-2349094D01*
G01X2238959Y-2348484D01*
G01X2237130Y-2347874D01*
G01X2235149Y-2347265D01*
G01X2233625Y-2346808D01*
G01X2230323Y-2346198D01*
G01X2228190Y-2345893D01*
G37*
G36*
G01X2185619Y-2420620D02*
G01X2185619Y-2425598D01*
G01X2185721Y-2429408D01*
G01X2186076Y-2430932D01*
G01X2187143Y-2431644D01*
G01X2206193Y-2444394D01*
G01X2208327Y-2445918D01*
G01X2239721Y-2466797D01*
G01X2240585Y-2467559D01*
G01X2233828Y-2467813D01*
G01X2213204Y-2467864D01*
G01X2185619D01*
G01Y-2477262D01*
G01X2256841D01*
G01Y-2472893D01*
G01X2256688Y-2467712D01*
G01X2256384Y-2467051D01*
G01X2255774Y-2466492D01*
G01X2246224Y-2460142D01*
G01X2244090Y-2458618D01*
G01X2212746Y-2437740D01*
G01X2210613Y-2436216D01*
G01X2203806Y-2431644D01*
G01X2202739Y-2431085D01*
G01X2202129Y-2430475D01*
G01X2208886Y-2430120D01*
G01X2229409Y-2430018D01*
G01X2256841D01*
G01Y-2420620D01*
G37*
G36*
G01X2208784Y-2490927D02*
G01X2195474Y-2491232D01*
G01X2194865Y-2491842D01*
G01X2193950Y-2492858D01*
G01X2192426Y-2494991D01*
G01X2191664Y-2496210D01*
G01X2191055Y-2497277D01*
G01X2190293Y-2498496D01*
G01X2189531Y-2499868D01*
G01X2188312Y-2502256D01*
G01X2187753Y-2503627D01*
G01X2187143Y-2505151D01*
G01X2185467Y-2510130D01*
G01X2184857Y-2513178D01*
G01X2184552Y-2515311D01*
G01X2184400Y-2520747D01*
G01X2184552Y-2526233D01*
G01X2185162Y-2529230D01*
G01X2185467Y-2530602D01*
G01X2185924Y-2532583D01*
G01X2186534Y-2534564D01*
G01X2187143Y-2536190D01*
G01X2188312Y-2538933D01*
G01X2189074Y-2540457D01*
G01X2190598Y-2542896D01*
G01X2192122Y-2544978D01*
G01X2193036Y-2546045D01*
G01X2196389Y-2549398D01*
G01X2197557Y-2550312D01*
G01X2198624Y-2551074D01*
G01X2201062Y-2552598D01*
G01X2202434Y-2553310D01*
G01X2203806Y-2553919D01*
G01X2205025Y-2554376D01*
G01X2206041Y-2554834D01*
G01X2207260Y-2555291D01*
G01X2208936Y-2555748D01*
G01X2210308Y-2556205D01*
G01X2213661Y-2556815D01*
G01X2216048Y-2557120D01*
G01X2220163Y-2557272D01*
G01X2224837Y-2557120D01*
G01X2227275Y-2556815D01*
G01X2229104Y-2556510D01*
G01X2230628Y-2556205D01*
G01X2232711Y-2555748D01*
G01X2234692Y-2555138D01*
G01X2236521Y-2554529D01*
G01X2238045Y-2553919D01*
G01X2239416Y-2553310D01*
G01X2241804Y-2552141D01*
G01X2243176Y-2551379D01*
G01X2244547Y-2550465D01*
G01X2246681Y-2548941D01*
G01X2247748Y-2548026D01*
G01X2250745Y-2544978D01*
G01X2251354Y-2544267D01*
G01X2252878Y-2542134D01*
G01X2253488Y-2541067D01*
G01X2254707Y-2538628D01*
G01X2255317Y-2537257D01*
G01X2255926Y-2535784D01*
G01X2256536Y-2533802D01*
G01X2256993Y-2532278D01*
G01X2257552Y-2529230D01*
G01X2257857Y-2527148D01*
G01X2258009Y-2522118D01*
G01X2257857Y-2516835D01*
G01X2257552Y-2514702D01*
G01X2257146Y-2512263D01*
G01X2256688Y-2510739D01*
G01X2256384Y-2509571D01*
G01X2255926Y-2508199D01*
G01X2255469Y-2506980D01*
G01X2255012Y-2505913D01*
G01X2254402Y-2504694D01*
G01X2253640Y-2503322D01*
G01X2252726Y-2501951D01*
G01X2251964Y-2500935D01*
G01X2251354Y-2500173D01*
G01X2248814Y-2497582D01*
G01X2247595Y-2496668D01*
G01X2246833Y-2496058D01*
G01X2245766Y-2495448D01*
G01X2243328Y-2494229D01*
G01X2241956Y-2493620D01*
G01X2240432Y-2493010D01*
G01X2239112Y-2492553D01*
G01X2237892Y-2492299D01*
G01X2237232D01*
G01X2236826Y-2492553D01*
G01X2236368Y-2493772D01*
G01X2235911Y-2495601D01*
G01X2235302Y-2497734D01*
G01X2234844Y-2499258D01*
G01X2234692Y-2500325D01*
G01X2234895Y-2500782D01*
G01X2235454Y-2501087D01*
G01X2236826Y-2501494D01*
G01X2238045Y-2501951D01*
G01X2239112Y-2502408D01*
G01X2242414Y-2504084D01*
G01X2243176Y-2504694D01*
G01X2244090Y-2505456D01*
G01X2244852Y-2506218D01*
G01X2245462Y-2506980D01*
G01X2246376Y-2508047D01*
G01X2247290Y-2509571D01*
G01X2248052Y-2510892D01*
G01X2248916Y-2513330D01*
G01X2249373Y-2514702D01*
G01X2249678Y-2515921D01*
G01X2249983Y-2518054D01*
G01X2250135Y-2521204D01*
G01X2249983Y-2524404D01*
G01X2249678Y-2526843D01*
G01X2249373Y-2528316D01*
G01X2248916Y-2530297D01*
G01X2248357Y-2531974D01*
G01X2247748Y-2533498D01*
G01X2247138Y-2534717D01*
G01X2246528Y-2535784D01*
G01X2245919Y-2536647D01*
G01X2245462Y-2537409D01*
G01X2244852Y-2538171D01*
G01X2241804Y-2541219D01*
G01X2241042Y-2541829D01*
G01X2239264Y-2543048D01*
G01X2238197Y-2543658D01*
G01X2236978Y-2544267D01*
G01X2234844Y-2545131D01*
G01X2233473Y-2545588D01*
G01X2230476Y-2546502D01*
G01X2229104Y-2546807D01*
G01X2226970Y-2547112D01*
G01X2221992Y-2547264D01*
G01X2216353Y-2547112D01*
G01X2214220Y-2546807D01*
G01X2212746Y-2546502D01*
G01X2211375Y-2546198D01*
G01X2209546Y-2545740D01*
G01X2207870Y-2545131D01*
G01X2206346Y-2544572D01*
G01X2204872Y-2543810D01*
G01X2203348Y-2542896D01*
G01X2202282Y-2542134D01*
G01X2199996Y-2540305D01*
G01X2198929Y-2539238D01*
G01X2198014Y-2538019D01*
G01X2197252Y-2536952D01*
G01X2196541Y-2535784D01*
G01X2195932Y-2534717D01*
G01X2195322Y-2533498D01*
G01X2194712Y-2531974D01*
G01X2194103Y-2530297D01*
G01X2193646Y-2528926D01*
G01X2193036Y-2525624D01*
G01X2192884Y-2522118D01*
G01X2193036Y-2517750D01*
G01X2193341Y-2515921D01*
G01X2193646Y-2514397D01*
G01X2194103Y-2512416D01*
G01X2194712Y-2510587D01*
G01X2195322Y-2509114D01*
G01X2195932Y-2507742D01*
G01X2197710Y-2504084D01*
G01X2198472Y-2502865D01*
G01X2199234Y-2501798D01*
G01X2199843Y-2500935D01*
G01X2201723Y-2500478D01*
G01X2206803Y-2500325D01*
G01X2213508D01*
G01Y-2521509D01*
G01X2221687D01*
G01Y-2513178D01*
G01X2221840Y-2504389D01*
G01X2221992Y-2497430D01*
G01Y-2490927D01*
G37*
G36*
G01X2435910Y-2533486D02*
G01X2435607Y-2528335D01*
G01Y-2523335D01*
G01X2436516Y-2523032D01*
G01X2438032Y-2522426D01*
G01X2440456Y-2521516D01*
G01X2445001Y-2519698D01*
G01X2446668Y-2519092D01*
G01X2451214Y-2517274D01*
G01X2452880Y-2516668D01*
G01X2460456Y-2513638D01*
G01X2462880Y-2512729D01*
G01X2467426Y-2510910D01*
G01X2469092Y-2510304D01*
G01X2473638Y-2508486D01*
G01X2475305Y-2507880D01*
G01X2481365Y-2505456D01*
G01X2483032Y-2504850D01*
G01X2489092Y-2502426D01*
G01X2490759Y-2501819D01*
G01X2496820Y-2499395D01*
G01X2498486Y-2498789D01*
G01X2503032Y-2496971D01*
G01X2504698Y-2496365D01*
G01X2506214Y-2495759D01*
G01X2506820Y-2495456D01*
G01Y-2505153D01*
G01X2506062Y-2505456D01*
G01X2504395Y-2506062D01*
G01X2502880Y-2506668D01*
G01X2498032Y-2508486D01*
G01X2496668Y-2508941D01*
G01X2484547Y-2513486D01*
G01X2483183Y-2513941D01*
G01X2481668Y-2514547D01*
G01X2478335Y-2515759D01*
G01X2476820Y-2516365D01*
G01X2471971Y-2518183D01*
G01X2470608Y-2518638D01*
G01X2456062Y-2524092D01*
G01X2454698Y-2524547D01*
G01X2453183Y-2525153D01*
G01X2445911Y-2527577D01*
G01X2444698Y-2528032D01*
G01Y-2528486D01*
G01X2445911Y-2528941D01*
G01X2447426Y-2529395D01*
G01X2455608Y-2532123D01*
G01X2457123Y-2532729D01*
G01X2458941Y-2533335D01*
G01X2465608Y-2535759D01*
G01X2467426Y-2536365D01*
G01X2468941Y-2536971D01*
G01X2471668Y-2537880D01*
G01X2473183Y-2538486D01*
G01X2475001Y-2539092D01*
G01X2478335Y-2540304D01*
G01X2480153Y-2540910D01*
G01X2481668Y-2541516D01*
G01X2484395Y-2542426D01*
G01X2485911Y-2543032D01*
G01X2487729Y-2543638D01*
G01X2489244Y-2544244D01*
G01X2491971Y-2545153D01*
G01X2493486Y-2545759D01*
G01X2495304Y-2546365D01*
G01X2498638Y-2547577D01*
G01X2500456Y-2548183D01*
G01X2501971Y-2548789D01*
G01X2504698Y-2549698D01*
G01X2506062Y-2550304D01*
G01X2506820Y-2550607D01*
G01Y-2560910D01*
G01X2505910Y-2560607D01*
G01X2504244Y-2560001D01*
G01X2502729Y-2559395D01*
G01X2501062Y-2558789D01*
G01X2496517Y-2556971D01*
G01X2494092Y-2556062D01*
G01X2491062Y-2554850D01*
G01X2488638Y-2553941D01*
G01X2487123Y-2553335D01*
G01X2485456Y-2552729D01*
G01X2482426Y-2551516D01*
G01X2480759Y-2550910D01*
G01X2476214Y-2549092D01*
G01X2473789Y-2548183D01*
G01X2472274Y-2547577D01*
G01X2470608Y-2546971D01*
G01X2467577Y-2545759D01*
G01X2465911Y-2545153D01*
G01X2461365Y-2543335D01*
G01X2458941Y-2542426D01*
G01X2455911Y-2541213D01*
G01X2453486Y-2540304D01*
G01X2451971Y-2539698D01*
G01X2450304Y-2539092D01*
G01X2447274Y-2537880D01*
G01X2445607Y-2537274D01*
G01X2441062Y-2535456D01*
G01X2438638Y-2534547D01*
G01X2437123Y-2533941D01*
G01X2435910Y-2533486D01*
G37*
G36*
G01X2434547Y-2389547D02*
G01X2434395Y-2384092D01*
G01X2434547Y-2378637D01*
G01X2435153Y-2375304D01*
G01X2436213Y-2372122D01*
G01X2436820Y-2370607D01*
G01X2437426Y-2369243D01*
G01X2438032Y-2368183D01*
G01X2439547Y-2365910D01*
G01X2440456Y-2364698D01*
G01X2441213Y-2363940D01*
G01X2442426Y-2362425D01*
G01X2443638Y-2361516D01*
G01X2444698Y-2360456D01*
G01X2445456Y-2359850D01*
G01X2446517Y-2359243D01*
G01X2447880Y-2358334D01*
G01X2449244Y-2357577D01*
G01X2450304Y-2356971D01*
G01X2453486Y-2355607D01*
G01X2454698Y-2355153D01*
G01X2456214Y-2354698D01*
G01X2457577Y-2354395D01*
G01X2457994Y-2354433D01*
G01X2458335Y-2354850D01*
G01X2458789Y-2356516D01*
G01X2459092Y-2358031D01*
G01X2459547Y-2359547D01*
G01X2460002Y-2361516D01*
G01X2460305Y-2362880D01*
G01X2460153Y-2363637D01*
G01X2458941Y-2364092D01*
G01X2457577Y-2364395D01*
G01X2456365Y-2364850D01*
G01X2453335Y-2366062D01*
G01X2452274Y-2366668D01*
G01X2450001Y-2368183D01*
G01X2448486Y-2369395D01*
G01X2447274Y-2370759D01*
G01X2446365Y-2371819D01*
G01X2445759Y-2372577D01*
G01X2445304Y-2373486D01*
G01X2444547Y-2374698D01*
G01X2443941Y-2376062D01*
G01X2443486Y-2377274D01*
G01X2443032Y-2378940D01*
G01X2442729Y-2380456D01*
G01X2442426Y-2382274D01*
G01X2442274Y-2385456D01*
G01X2442426Y-2387728D01*
G01X2442729Y-2389395D01*
G01X2443183Y-2391213D01*
G01X2443638Y-2392577D01*
G01X2444092Y-2393789D01*
G01X2445304Y-2396213D01*
G01X2446062Y-2397425D01*
G01X2446820Y-2398486D01*
G01X2447426Y-2399244D01*
G01X2448941Y-2400759D01*
G01X2449850Y-2401516D01*
G01X2450759Y-2402122D01*
G01X2451820Y-2402880D01*
G01X2453335Y-2403789D01*
G01X2455002Y-2404547D01*
G01X2456517Y-2405153D01*
G01X2457880Y-2405607D01*
G01X2459092Y-2405910D01*
G01X2460608Y-2406365D01*
G01X2463032Y-2406819D01*
G01X2464850Y-2407122D01*
G01X2467577Y-2407426D01*
G01X2471971Y-2407577D01*
G01X2476365Y-2407426D01*
G01X2478789Y-2407122D01*
G01X2481820Y-2406516D01*
G01X2483335Y-2406062D01*
G01X2485304Y-2405456D01*
G01X2487123Y-2404850D01*
G01X2488486Y-2404244D01*
G01X2489547Y-2403638D01*
G01X2490759Y-2402880D01*
G01X2491820Y-2402122D01*
G01X2493032Y-2401213D01*
G01X2494092Y-2400153D01*
G01X2495911Y-2397880D01*
G01X2496668Y-2396819D01*
G01X2497577Y-2395304D01*
G01X2498183Y-2393941D01*
G01X2498638Y-2392728D01*
G01X2499092Y-2391365D01*
G01X2499395Y-2390153D01*
G01X2499698Y-2388638D01*
G01X2500001Y-2386516D01*
G01X2500153Y-2383183D01*
G01X2500001Y-2380456D01*
G01X2499698Y-2378940D01*
G01X2499244Y-2377274D01*
G01X2498789Y-2375910D01*
G01X2498335Y-2374698D01*
G01X2496820Y-2372274D01*
G01X2495607Y-2370759D01*
G01X2494850Y-2370001D01*
G01X2493638Y-2369092D01*
G01X2492123Y-2368031D01*
G01X2490911Y-2367274D01*
G01X2488486Y-2366062D01*
G01X2487426Y-2365607D01*
G01X2486214Y-2365153D01*
G01X2485456Y-2364395D01*
G01Y-2363031D01*
G01X2485759Y-2361668D01*
G01X2486214Y-2360153D01*
G01X2486668Y-2358031D01*
G01X2486971Y-2356516D01*
G01X2487426Y-2355759D01*
G01X2488486Y-2355607D01*
G01X2489850Y-2356062D01*
G01X2491365Y-2356668D01*
G01X2492729Y-2357274D01*
G01X2493941Y-2357880D01*
G01X2495001Y-2358486D01*
G01X2496062Y-2359243D01*
G01X2497577Y-2360304D01*
G01X2499092Y-2361516D01*
G01X2500911Y-2363334D01*
G01X2502426Y-2365153D01*
G01X2503032Y-2365910D01*
G01X2503638Y-2366971D01*
G01X2504395Y-2368334D01*
G01X2505001Y-2369395D01*
G01X2505456Y-2370304D01*
G01X2505910Y-2371365D01*
G01X2506365Y-2372577D01*
G01X2506820Y-2373940D01*
G01X2507274Y-2375759D01*
G01X2507577Y-2377425D01*
G01X2507880Y-2379547D01*
G01X2508032Y-2384244D01*
G01X2507880Y-2388941D01*
G01X2507274Y-2392274D01*
G01X2506971Y-2393486D01*
G01X2506062Y-2396213D01*
G01X2505607Y-2397425D01*
G01X2504698Y-2399547D01*
G01X2504092Y-2400759D01*
G01X2503486Y-2401819D01*
G01X2501971Y-2404092D01*
G01X2501062Y-2405304D01*
G01X2499850Y-2406819D01*
G01X2498335Y-2408335D01*
G01X2496820Y-2409547D01*
G01X2495911Y-2410304D01*
G01X2495001Y-2410910D01*
G01X2493941Y-2411668D01*
G01X2492426Y-2412577D01*
G01X2489698Y-2413941D01*
G01X2488638Y-2414395D01*
G01X2487426Y-2414850D01*
G01X2484698Y-2415759D01*
G01X2483032Y-2416213D01*
G01X2481517Y-2416516D01*
G01X2477880Y-2417122D01*
G01X2474547Y-2417426D01*
G01X2471365Y-2417577D01*
G01X2468183Y-2417426D01*
G01X2464850Y-2417122D01*
G01X2462729Y-2416819D01*
G01X2459698Y-2416213D01*
G01X2458183Y-2415759D01*
G01X2456214Y-2415153D01*
G01X2454547Y-2414547D01*
G01X2451517Y-2413335D01*
G01X2449092Y-2412122D01*
G01X2448032Y-2411516D01*
G01X2446971Y-2410759D01*
G01X2445456Y-2409698D01*
G01X2443941Y-2408486D01*
G01X2441365Y-2405910D01*
G01X2440456Y-2404698D01*
G01X2439395Y-2403183D01*
G01X2438486Y-2401819D01*
G01X2437729Y-2400456D01*
G01X2437123Y-2399092D01*
G01X2436516Y-2397577D01*
G01X2435910Y-2395759D01*
G01X2435456Y-2393941D01*
G01X2435153Y-2392577D01*
G01X2434547Y-2389547D01*
G37*
G36*
G01X2434547Y-2461668D02*
G01X2434395Y-2456516D01*
G01X2434547Y-2451062D01*
G01X2434850Y-2448941D01*
G01X2435456Y-2446516D01*
G01X2435910Y-2445153D01*
G01X2436516Y-2443638D01*
G01X2437123Y-2442274D01*
G01X2437729Y-2441062D01*
G01X2438335Y-2440001D01*
G01X2439092Y-2438789D01*
G01X2439850Y-2437728D01*
G01X2441062Y-2436213D01*
G01X2443335Y-2433941D01*
G01X2444850Y-2432728D01*
G01X2446062Y-2431819D01*
G01X2447577Y-2430759D01*
G01X2448941Y-2430001D01*
G01X2450001Y-2429395D01*
G01X2452123Y-2428486D01*
G01X2453486Y-2427880D01*
G01X2455305Y-2427274D01*
G01X2457274Y-2426668D01*
G01X2458070Y-2426592D01*
G01X2458335Y-2426971D01*
G01X2458486Y-2428032D01*
G01X2458941Y-2429547D01*
G01X2459395Y-2431516D01*
G01X2459698Y-2432880D01*
G01X2460153Y-2434395D01*
G01X2460305Y-2435759D01*
G01X2459244Y-2436213D01*
G01X2457729Y-2436668D01*
G01X2456365Y-2437122D01*
G01X2455153Y-2437577D01*
G01X2453032Y-2438486D01*
G01X2451820Y-2439244D01*
G01X2450456Y-2440153D01*
G01X2449395Y-2440910D01*
G01X2447123Y-2443183D01*
G01X2446214Y-2444395D01*
G01X2445153Y-2445910D01*
G01X2444395Y-2447425D01*
G01X2443789Y-2448789D01*
G01X2443335Y-2450153D01*
G01X2442729Y-2452577D01*
G01X2442426Y-2454698D01*
G01X2442274Y-2457728D01*
G01X2442426Y-2459850D01*
G01X2442729Y-2461971D01*
G01X2443183Y-2463486D01*
G01X2443789Y-2465304D01*
G01X2444395Y-2466819D01*
G01X2445153Y-2468183D01*
G01X2445911Y-2469395D01*
G01X2446820Y-2470759D01*
G01X2449395Y-2473334D01*
G01X2450911Y-2474547D01*
G01X2451820Y-2475153D01*
G01X2453032Y-2475910D01*
G01X2454698Y-2476668D01*
G01X2457729Y-2477880D01*
G01X2459547Y-2478334D01*
G01X2460911Y-2478637D01*
G01X2462123Y-2478940D01*
G01X2463941Y-2479244D01*
G01X2466062Y-2479547D01*
G01X2468486Y-2479698D01*
G01X2472123Y-2480001D01*
G01X2477577Y-2479547D01*
G01X2479698Y-2479244D01*
G01X2481214Y-2478940D01*
G01X2482880Y-2478486D01*
G01X2485911Y-2477577D01*
G01X2487426Y-2476971D01*
G01X2488789Y-2476365D01*
G01X2491214Y-2474850D01*
G01X2492426Y-2473941D01*
G01X2495001Y-2471365D01*
G01X2495911Y-2470153D01*
G01X2496971Y-2468637D01*
G01X2498335Y-2465910D01*
G01X2498789Y-2464698D01*
G01X2499395Y-2462274D01*
G01X2499698Y-2460759D01*
G01X2500001Y-2458638D01*
G01X2500153Y-2455304D01*
G01X2500001Y-2452880D01*
G01X2499698Y-2451213D01*
G01X2499244Y-2449395D01*
G01X2498789Y-2448183D01*
G01X2498335Y-2447122D01*
G01X2497729Y-2445910D01*
G01X2496971Y-2444850D01*
G01X2495759Y-2443335D01*
G01X2494244Y-2441819D01*
G01X2493032Y-2440910D01*
G01X2491517Y-2439850D01*
G01X2488789Y-2438486D01*
G01X2487729Y-2438032D01*
G01X2486517Y-2437577D01*
G01X2485608Y-2437122D01*
G01X2485304Y-2436365D01*
G01X2485456Y-2435304D01*
G01X2485911Y-2433789D01*
G01X2486365Y-2431668D01*
G01X2486668Y-2430153D01*
G01X2487123Y-2428638D01*
G01X2487426Y-2427577D01*
G01X2490153Y-2428486D01*
G01X2491668Y-2429092D01*
G01X2493032Y-2429698D01*
G01X2494395Y-2430456D01*
G01X2495607Y-2431213D01*
G01X2496971Y-2432122D01*
G01X2498183Y-2433032D01*
G01X2501214Y-2436062D01*
G01X2502123Y-2437122D01*
G01X2503638Y-2439244D01*
G01X2504395Y-2440456D01*
G01X2505607Y-2442880D01*
G01X2506062Y-2443941D01*
G01X2506517Y-2445153D01*
G01X2506971Y-2446819D01*
G01X2507274Y-2448335D01*
G01X2507577Y-2449547D01*
G01X2507880Y-2451668D01*
G01X2508032Y-2456819D01*
G01X2507880Y-2461062D01*
G01X2507577Y-2463183D01*
G01X2506971Y-2465910D01*
G01X2506517Y-2467274D01*
G01X2505910Y-2468941D01*
G01X2505304Y-2470456D01*
G01X2504698Y-2471819D01*
G01X2503183Y-2474547D01*
G01X2502426Y-2475759D01*
G01X2501668Y-2476819D01*
G01X2500759Y-2478031D01*
G01X2497426Y-2481365D01*
G01X2496517Y-2482122D01*
G01X2495607Y-2482728D01*
G01X2494547Y-2483486D01*
G01X2492123Y-2485001D01*
G01X2489395Y-2486365D01*
G01X2488335Y-2486819D01*
G01X2487123Y-2487274D01*
G01X2485759Y-2487728D01*
G01X2484547Y-2488031D01*
G01X2483032Y-2488486D01*
G01X2480608Y-2488941D01*
G01X2478789Y-2489244D01*
G01X2476365Y-2489547D01*
G01X2471214Y-2489698D01*
G01X2466062Y-2489547D01*
G01X2463638Y-2489244D01*
G01X2460305Y-2488638D01*
G01X2458789Y-2488183D01*
G01X2456820Y-2487577D01*
G01X2455002Y-2486971D01*
G01X2453335Y-2486365D01*
G01X2451820Y-2485759D01*
G01X2449395Y-2484547D01*
G01X2448335Y-2483940D01*
G01X2446062Y-2482425D01*
G01X2444850Y-2481516D01*
G01X2444092Y-2480759D01*
G01X2443183Y-2480001D01*
G01X2442123Y-2478940D01*
G01X2440304Y-2476819D01*
G01X2438486Y-2474092D01*
G01X2437123Y-2471365D01*
G01X2436516Y-2470001D01*
G01X2435910Y-2468183D01*
G01X2435456Y-2466365D01*
G01X2435153Y-2465001D01*
G01X2434850Y-2463183D01*
G01X2434547Y-2461668D01*
G37*
G36*
G01X2684547Y-2445001D02*
G01X2684395Y-2439850D01*
G01X2684547Y-2434395D01*
G01X2684850Y-2432274D01*
G01X2685456Y-2429850D01*
G01X2685910Y-2428486D01*
G01X2686516Y-2426971D01*
G01X2687123Y-2425607D01*
G01X2687729Y-2424395D01*
G01X2688335Y-2423335D01*
G01X2689092Y-2422123D01*
G01X2689850Y-2421062D01*
G01X2691062Y-2419547D01*
G01X2693335Y-2417274D01*
G01X2694850Y-2416062D01*
G01X2696062Y-2415153D01*
G01X2697577Y-2414092D01*
G01X2698941Y-2413335D01*
G01X2700001Y-2412728D01*
G01X2702123Y-2411819D01*
G01X2703486Y-2411213D01*
G01X2705305Y-2410607D01*
G01X2707274Y-2410001D01*
G01X2708070Y-2409925D01*
G01X2708335Y-2410304D01*
G01X2708486Y-2411365D01*
G01X2708941Y-2412880D01*
G01X2709395Y-2414850D01*
G01X2709699Y-2416213D01*
G01X2710153Y-2417729D01*
G01X2710305Y-2419092D01*
G01X2709244Y-2419547D01*
G01X2707729Y-2420001D01*
G01X2706365Y-2420456D01*
G01X2705153Y-2420910D01*
G01X2703032Y-2421819D01*
G01X2701820Y-2422577D01*
G01X2700456Y-2423486D01*
G01X2699395Y-2424244D01*
G01X2697123Y-2426516D01*
G01X2696214Y-2427729D01*
G01X2695153Y-2429244D01*
G01X2694395Y-2430759D01*
G01X2693789Y-2432122D01*
G01X2693335Y-2433486D01*
G01X2692729Y-2435910D01*
G01X2692426Y-2438032D01*
G01X2692274Y-2441062D01*
G01X2692426Y-2443183D01*
G01X2692729Y-2445304D01*
G01X2693183Y-2446819D01*
G01X2693789Y-2448638D01*
G01X2694395Y-2450153D01*
G01X2695153Y-2451516D01*
G01X2695911Y-2452728D01*
G01X2696820Y-2454092D01*
G01X2699395Y-2456668D01*
G01X2700911Y-2457880D01*
G01X2701820Y-2458486D01*
G01X2703032Y-2459244D01*
G01X2704698Y-2460001D01*
G01X2707729Y-2461213D01*
G01X2709547Y-2461668D01*
G01X2710911Y-2461971D01*
G01X2712123Y-2462274D01*
G01X2713941Y-2462577D01*
G01X2716062Y-2462880D01*
G01X2718486Y-2463031D01*
G01X2722123Y-2463335D01*
G01X2727577Y-2462880D01*
G01X2729698Y-2462577D01*
G01X2731214Y-2462274D01*
G01X2732880Y-2461819D01*
G01X2735911Y-2460910D01*
G01X2737426Y-2460304D01*
G01X2738789Y-2459698D01*
G01X2741214Y-2458183D01*
G01X2742426Y-2457274D01*
G01X2745001Y-2454698D01*
G01X2745911Y-2453486D01*
G01X2746971Y-2451971D01*
G01X2748335Y-2449244D01*
G01X2748789Y-2448032D01*
G01X2749395Y-2445607D01*
G01X2749698Y-2444092D01*
G01X2750001Y-2441971D01*
G01X2750153Y-2438638D01*
G01X2750001Y-2436213D01*
G01X2749698Y-2434547D01*
G01X2749244Y-2432729D01*
G01X2748789Y-2431516D01*
G01X2748335Y-2430456D01*
G01X2747729Y-2429244D01*
G01X2746971Y-2428183D01*
G01X2745759Y-2426668D01*
G01X2744244Y-2425153D01*
G01X2743032Y-2424244D01*
G01X2741517Y-2423183D01*
G01X2738789Y-2421819D01*
G01X2737729Y-2421365D01*
G01X2736517Y-2420910D01*
G01X2735608Y-2420456D01*
G01X2735304Y-2419698D01*
G01X2735456Y-2418638D01*
G01X2735911Y-2417122D01*
G01X2736365Y-2415001D01*
G01X2736668Y-2413486D01*
G01X2737123Y-2411971D01*
G01X2737426Y-2410910D01*
G01X2740153Y-2411819D01*
G01X2741668Y-2412425D01*
G01X2743032Y-2413032D01*
G01X2744395Y-2413789D01*
G01X2745608Y-2414547D01*
G01X2746971Y-2415456D01*
G01X2748183Y-2416365D01*
G01X2751214Y-2419395D01*
G01X2752123Y-2420456D01*
G01X2753638Y-2422577D01*
G01X2754395Y-2423789D01*
G01X2755607Y-2426213D01*
G01X2756062Y-2427274D01*
G01X2756517Y-2428486D01*
G01X2756971Y-2430153D01*
G01X2757274Y-2431668D01*
G01X2757577Y-2432880D01*
G01X2757880Y-2435001D01*
G01X2758032Y-2440153D01*
G01X2757880Y-2444395D01*
G01X2757577Y-2446516D01*
G01X2756971Y-2449244D01*
G01X2756517Y-2450607D01*
G01X2755911Y-2452274D01*
G01X2755304Y-2453789D01*
G01X2754698Y-2455153D01*
G01X2753183Y-2457880D01*
G01X2752426Y-2459092D01*
G01X2751668Y-2460153D01*
G01X2750759Y-2461365D01*
G01X2747426Y-2464698D01*
G01X2746517Y-2465456D01*
G01X2745608Y-2466062D01*
G01X2744547Y-2466819D01*
G01X2742123Y-2468335D01*
G01X2739395Y-2469698D01*
G01X2738335Y-2470153D01*
G01X2737123Y-2470607D01*
G01X2735759Y-2471062D01*
G01X2734547Y-2471365D01*
G01X2733032Y-2471819D01*
G01X2730608Y-2472274D01*
G01X2728789Y-2472577D01*
G01X2726365Y-2472880D01*
G01X2721214Y-2473031D01*
G01X2716062Y-2472880D01*
G01X2713638Y-2472577D01*
G01X2710305Y-2471971D01*
G01X2708789Y-2471516D01*
G01X2706820Y-2470910D01*
G01X2705002Y-2470304D01*
G01X2703335Y-2469698D01*
G01X2701820Y-2469092D01*
G01X2699395Y-2467880D01*
G01X2698335Y-2467274D01*
G01X2696062Y-2465759D01*
G01X2694850Y-2464850D01*
G01X2694092Y-2464092D01*
G01X2693183Y-2463335D01*
G01X2692123Y-2462274D01*
G01X2690304Y-2460153D01*
G01X2688486Y-2457425D01*
G01X2687123Y-2454698D01*
G01X2686516Y-2453335D01*
G01X2685910Y-2451516D01*
G01X2685456Y-2449698D01*
G01X2685153Y-2448335D01*
G01X2684850Y-2446516D01*
G01X2684547Y-2445001D01*
G37*
G36*
G01X2684547Y-2516213D02*
G01X2684395Y-2510153D01*
G01X2684547Y-2504395D01*
G01X2685153Y-2501062D01*
G01X2686213Y-2497880D01*
G01X2686820Y-2496213D01*
G01X2688032Y-2493789D01*
G01X2688638Y-2492728D01*
G01X2689395Y-2491668D01*
G01X2690304Y-2490607D01*
G01X2691062Y-2489698D01*
G01X2692123Y-2488637D01*
G01X2693183Y-2487728D01*
G01X2694092Y-2486971D01*
G01X2695153Y-2486365D01*
G01X2696365Y-2485607D01*
G01X2697880Y-2484850D01*
G01X2699547Y-2484244D01*
G01X2701517Y-2483638D01*
G01X2703638Y-2483334D01*
G01X2705153Y-2483183D01*
G01X2706214Y-2483031D01*
G01X2707274Y-2483183D01*
G01X2709699Y-2483486D01*
G01X2710911Y-2483789D01*
G01X2712274Y-2484244D01*
G01X2713638Y-2484850D01*
G01X2714850Y-2485456D01*
G01X2715759Y-2486062D01*
G01X2716971Y-2486971D01*
G01X2719547Y-2489547D01*
G01X2720305Y-2490607D01*
G01X2721214Y-2491971D01*
G01X2721971Y-2493183D01*
G01X2723183Y-2495607D01*
G01X2724092Y-2498031D01*
G01X2724547Y-2499395D01*
G01X2725456Y-2502425D01*
G01X2725759Y-2503789D01*
G01X2726214Y-2505304D01*
G01X2726668Y-2507274D01*
G01X2726971Y-2508638D01*
G01X2727729Y-2511668D01*
G01X2728183Y-2513638D01*
G01X2728486Y-2515001D01*
G01X2728941Y-2516516D01*
G01X2729547Y-2518486D01*
G01X2730153Y-2520304D01*
G01X2730759Y-2521971D01*
G01X2731365Y-2523486D01*
G01X2731971Y-2524547D01*
G01X2732577Y-2525304D01*
G01X2733335Y-2526062D01*
G01X2734395Y-2526820D01*
G01X2735759Y-2527577D01*
G01X2737577Y-2528032D01*
G01X2740001Y-2528183D01*
G01X2741971Y-2527880D01*
G01X2743335Y-2527274D01*
G01X2744395Y-2526668D01*
G01X2745153Y-2526062D01*
G01X2745911Y-2525304D01*
G01X2746517Y-2524547D01*
G01X2747274Y-2523486D01*
G01X2748032Y-2522274D01*
G01X2748486Y-2521062D01*
G01X2748941Y-2519698D01*
G01X2749244Y-2518486D01*
G01X2749395Y-2517426D01*
G01X2749698Y-2515607D01*
G01X2749850Y-2511213D01*
G01X2749698Y-2507728D01*
G01X2749395Y-2506062D01*
G01X2748941Y-2504244D01*
G01X2748486Y-2503031D01*
G01X2748032Y-2501971D01*
G01X2747426Y-2500910D01*
G01X2746517Y-2499547D01*
G01X2745456Y-2498486D01*
G01X2743941Y-2497274D01*
G01X2743032Y-2496668D01*
G01X2741820Y-2496062D01*
G01X2740153Y-2495456D01*
G01X2738486Y-2495001D01*
G01X2736971Y-2494547D01*
G01X2736403Y-2493903D01*
G01X2736214Y-2492577D01*
G01X2736668Y-2486213D01*
G01X2736820Y-2485607D01*
G01X2738335Y-2485456D01*
G01X2740304Y-2485607D01*
G01X2742729Y-2486213D01*
G01X2743941Y-2486668D01*
G01X2745456Y-2487274D01*
G01X2746820Y-2488031D01*
G01X2748032Y-2488789D01*
G01X2748941Y-2489395D01*
G01X2749698Y-2490001D01*
G01X2751971Y-2492274D01*
G01X2752880Y-2493486D01*
G01X2753941Y-2495001D01*
G01X2755304Y-2497728D01*
G01X2755911Y-2499092D01*
G01X2756517Y-2500910D01*
G01X2756971Y-2502577D01*
G01X2757577Y-2505607D01*
G01X2757880Y-2507728D01*
G01X2758032Y-2513032D01*
G01X2757880Y-2517426D01*
G01X2757577Y-2519547D01*
G01X2757274Y-2520910D01*
G01X2756820Y-2522426D01*
G01X2755911Y-2525153D01*
G01X2755304Y-2526517D01*
G01X2754698Y-2527729D01*
G01X2753941Y-2528941D01*
G01X2752880Y-2530456D01*
G01X2751971Y-2531668D01*
G01X2751214Y-2532426D01*
G01X2750001Y-2533335D01*
G01X2748638Y-2534395D01*
G01X2747274Y-2535153D01*
G01X2746062Y-2535759D01*
G01X2744698Y-2536365D01*
G01X2742729Y-2536971D01*
G01X2741062Y-2537274D01*
G01X2740001Y-2537426D01*
G01X2737880Y-2537577D01*
G01X2735759Y-2537426D01*
G01X2734395Y-2537123D01*
G01X2732880Y-2536668D01*
G01X2731668Y-2536213D01*
G01X2730608Y-2535759D01*
G01X2729395Y-2535001D01*
G01X2728335Y-2534244D01*
G01X2727577Y-2533638D01*
G01X2726062Y-2532123D01*
G01X2725305Y-2531213D01*
G01X2724698Y-2530304D01*
G01X2723941Y-2529244D01*
G01X2723183Y-2527880D01*
G01X2722577Y-2526820D01*
G01X2722123Y-2525759D01*
G01X2721668Y-2524547D01*
G01X2721062Y-2523032D01*
G01X2719850Y-2519092D01*
G01X2719395Y-2517274D01*
G01X2719092Y-2515910D01*
G01X2718638Y-2514395D01*
G01X2718183Y-2512425D01*
G01X2717880Y-2511062D01*
G01X2717426Y-2509547D01*
G01X2716971Y-2507577D01*
G01X2716062Y-2504547D01*
G01X2715759Y-2503183D01*
G01X2715305Y-2501819D01*
G01X2714698Y-2500153D01*
G01X2713486Y-2497728D01*
G01X2712880Y-2496668D01*
G01X2712274Y-2495910D01*
G01X2711517Y-2495153D01*
G01X2710759Y-2494547D01*
G01X2709699Y-2493789D01*
G01X2708032Y-2493031D01*
G01X2706062Y-2492577D01*
G01X2703941Y-2492425D01*
G01X2702426Y-2492577D01*
G01X2701062Y-2493031D01*
G01X2699547Y-2493789D01*
G01X2698183Y-2494698D01*
G01X2696971Y-2495910D01*
G01X2695456Y-2498031D01*
G01X2694698Y-2499547D01*
G01X2694092Y-2500910D01*
G01X2693638Y-2502274D01*
G01X2693335Y-2503486D01*
G01X2693032Y-2505001D01*
G01X2692729Y-2506819D01*
G01X2692577Y-2510607D01*
G01X2692729Y-2514092D01*
G01X2693032Y-2516213D01*
G01X2693335Y-2517426D01*
G01X2694244Y-2520153D01*
G01X2694698Y-2521365D01*
G01X2695304Y-2522577D01*
G01X2695911Y-2523638D01*
G01X2696668Y-2524698D01*
G01X2697577Y-2525759D01*
G01X2698183Y-2526517D01*
G01X2698789Y-2527123D01*
G01X2700304Y-2528335D01*
G01X2702426Y-2529395D01*
G01X2703941Y-2530001D01*
G01X2705608Y-2530456D01*
G01X2706971Y-2530759D01*
G01X2708183Y-2531062D01*
G01X2708941Y-2531213D01*
G01Y-2532880D01*
G01X2708789Y-2535001D01*
G01X2708486Y-2538335D01*
G01X2708335Y-2539547D01*
G01Y-2540304D01*
G01X2707274D01*
G01X2705759Y-2540153D01*
G01X2703638Y-2539850D01*
G01X2702123Y-2539395D01*
G01X2700153Y-2538789D01*
G01X2698789Y-2538183D01*
G01X2697577Y-2537577D01*
G01X2696214Y-2536820D01*
G01X2694850Y-2535910D01*
G01X2693789Y-2535001D01*
G01X2692274Y-2533789D01*
G01X2691517Y-2533032D01*
G01X2689698Y-2530759D01*
G01X2689092Y-2529698D01*
G01X2688335Y-2528486D01*
G01X2687729Y-2527274D01*
G01X2686516Y-2524547D01*
G01X2686062Y-2523032D01*
G01X2685759Y-2521668D01*
G01X2685304Y-2520153D01*
G01X2685001Y-2518486D01*
G01X2684850Y-2517426D01*
G01X2684547Y-2516213D01*
G37*
G36*
G01X2721214Y-2398486D02*
G01X2685607Y-2398486D01*
G01Y-2353638D01*
G01X2693789D01*
G01Y-2388789D01*
G01X2756820D01*
G01Y-2398486D01*
G01X2721214D01*
G37*
G36*
G01X2945587Y-2350922D02*
G01X2945587Y-2356206D01*
G01X2945740Y-2360270D01*
G01X2946044Y-2361844D01*
G01X2947416Y-2362403D01*
G01X2949092Y-2363013D01*
G01X2952140Y-2364232D01*
G01X2953766Y-2364842D01*
G01X2956814Y-2366061D01*
G01X2958490Y-2366670D01*
G01X2961538Y-2367890D01*
G01X2963164Y-2368499D01*
G01X2966212Y-2369718D01*
G01X2967126Y-2370023D01*
G01Y-2384704D01*
G01Y-2385314D01*
G01X2974696D01*
G01X2974848Y-2373478D01*
G01X2975204Y-2373224D01*
G01X2975915Y-2373325D01*
G01X2979268Y-2374544D01*
G01X2980741Y-2375154D01*
G01X2994101Y-2380132D01*
G01X2995168Y-2380590D01*
G01X2996387Y-2381047D01*
G01X2997708Y-2381504D01*
G01X3000146Y-2382418D01*
G01X3005633Y-2384247D01*
G01X3007106Y-2384704D01*
G01X3007766Y-2384908D01*
G01X3007868Y-2385314D01*
G01X3006954Y-2385924D01*
G01X3005734Y-2386228D01*
G01X3004261Y-2386533D01*
G01X3002585Y-2386990D01*
G01X2999537Y-2387905D01*
G01X2996844Y-2388768D01*
G01X2977439Y-2396084D01*
G01X2975915Y-2396642D01*
G01X2974848Y-2396795D01*
G01X2974696Y-2385314D01*
G01X2967126D01*
G01X2966974Y-2395830D01*
G01X2966517Y-2399843D01*
G01X2965145Y-2400452D01*
G01X2962707Y-2401367D01*
G01X2961386Y-2401824D01*
G01X2959862Y-2402434D01*
G01X2946502Y-2407260D01*
G01X2945587Y-2407564D01*
G01Y-2417877D01*
G01X2946502Y-2417420D01*
G01X2948178Y-2416658D01*
G01X2949854Y-2416048D01*
G01X2952902Y-2414829D01*
G01X2954528Y-2414219D01*
G01X2956052Y-2413660D01*
G01X2957728Y-2413051D01*
G01X2960776Y-2411832D01*
G01X2962402Y-2411222D01*
G01X2963926Y-2410612D01*
G01X2965602Y-2410003D01*
G01X2968650Y-2408784D01*
G01X2970327Y-2408174D01*
G01X2971800Y-2407564D01*
G01X2973476Y-2406955D01*
G01X2976524Y-2405736D01*
G01X2978201Y-2405177D01*
G01X2979674Y-2404567D01*
G01X2981350Y-2403958D01*
G01X2984398Y-2402738D01*
G01X2986075Y-2402129D01*
G01X2987599Y-2401519D01*
G01X2989224Y-2400910D01*
G01X2992272Y-2399690D01*
G01X2995625Y-2398471D01*
G01X2998622Y-2397252D01*
G01X3000299Y-2396642D01*
G01X3001823Y-2396084D01*
G01X3003499Y-2395474D01*
G01X3006496Y-2394255D01*
G01X3008173Y-2393645D01*
G01X3009697Y-2393036D01*
G01X3011373Y-2392426D01*
G01X3014370Y-2391207D01*
G01X3016047Y-2390597D01*
G01X3016809Y-2390292D01*
G01Y-2385466D01*
G01X3016656Y-2380132D01*
G01X3015742Y-2379370D01*
G01X3011221Y-2377592D01*
G01X3009849Y-2376983D01*
G01X3006801Y-2375764D01*
G01X3005480Y-2375154D01*
G01X2999384Y-2372716D01*
G01X2998013Y-2372106D01*
G01X2995016Y-2370887D01*
G01X2993796Y-2370480D01*
G01X2992730Y-2370023D01*
G01X2991358Y-2369414D01*
G01X2986837Y-2367585D01*
G01X2985465Y-2366975D01*
G01X2980893Y-2365146D01*
G01X2979572Y-2364537D01*
G01X2976524Y-2363318D01*
G01X2975305Y-2362860D01*
G01X2974238Y-2362403D01*
G01X2972867Y-2361844D01*
G01X2968346Y-2360016D01*
G01X2966974Y-2359406D01*
G01X2960929Y-2356968D01*
G01X2959557Y-2356358D01*
G01X2956509Y-2355139D01*
G01X2955138Y-2354529D01*
G01X2949092Y-2352142D01*
G01X2947721Y-2351532D01*
G01X2946349Y-2351075D01*
G37*
G36*
G01X2981960Y-2423008D02*
G01X2975762Y-2423160D01*
G01X2973324Y-2423465D01*
G01X2968803Y-2424379D01*
G01X2967126Y-2424836D01*
G01X2964383Y-2425751D01*
G01X2963164Y-2426208D01*
G01X2962148Y-2426665D01*
G01X2959405Y-2428037D01*
G01X2957881Y-2428951D01*
G01X2955747Y-2430475D01*
G01X2952598Y-2433168D01*
G01X2950769Y-2435454D01*
G01X2949550Y-2437282D01*
G01X2948940Y-2438349D01*
G01X2948330Y-2439721D01*
G01X2947721Y-2441194D01*
G01X2946654Y-2444394D01*
G01X2946044Y-2447442D01*
G01X2945740Y-2449830D01*
G01X2945638Y-2462886D01*
G01X2953766D01*
G01X2953918Y-2452878D01*
G01X2954071Y-2451659D01*
G01X2954223Y-2450135D01*
G01X2954528Y-2448662D01*
G01X2955138Y-2446223D01*
G01X2955595Y-2445004D01*
G01X2956814Y-2442566D01*
G01X2957576Y-2441346D01*
G01X2958490Y-2440280D01*
G01X2960014Y-2438806D01*
G01X2960776Y-2438197D01*
G01X2961843Y-2437435D01*
G01X2963012Y-2436673D01*
G01X2964231Y-2436063D01*
G01X2965602Y-2435454D01*
G01X2967126Y-2434844D01*
G01X2969108Y-2434234D01*
G01X2970632Y-2433777D01*
G01X2974238Y-2433168D01*
G01X2977896Y-2432863D01*
G01X2981198Y-2432710D01*
G01X2984551Y-2432863D01*
G01X2988208Y-2433168D01*
G01X2989986Y-2433472D01*
G01X2992425Y-2433930D01*
G01X2993949Y-2434387D01*
G01X2995168Y-2434692D01*
G01X2996387Y-2435149D01*
G01X2998775Y-2436368D01*
G01X2999994Y-2437130D01*
G01X3001061Y-2437892D01*
G01X3001823Y-2438349D01*
G01X3002585Y-2438959D01*
G01X3004414Y-2440737D01*
G01X3005328Y-2441956D01*
G01X3006039Y-2443023D01*
G01X3006801Y-2444394D01*
G01X3007411Y-2445766D01*
G01X3007868Y-2447442D01*
G01X3008173Y-2448916D01*
G01X3008478Y-2451659D01*
G01X3008630Y-2462428D01*
G01Y-2472741D01*
G01X2981350D01*
G01X2953918Y-2472588D01*
G01X2953766Y-2462886D01*
G01X2945638D01*
G01X2945587Y-2466238D01*
G01Y-2482139D01*
G01X3016809D01*
G01Y-2466340D01*
G01X3016656Y-2450135D01*
G01X3016352Y-2447442D01*
G01X3016047Y-2445766D01*
G01X3015590Y-2443632D01*
G01X3014675Y-2440889D01*
G01X3014116Y-2439568D01*
G01X3012745Y-2436825D01*
G01X3011221Y-2434692D01*
G01X3010306Y-2433625D01*
G01X3007258Y-2430628D01*
G01X3006496Y-2430018D01*
G01X3004414Y-2428494D01*
G01X3002280Y-2427275D01*
G01X3001366Y-2426818D01*
G01X3000299Y-2426360D01*
G01X2998927Y-2425751D01*
G01X2997098Y-2425141D01*
G01X2995168Y-2424532D01*
G01X2993644Y-2424074D01*
G01X2990291Y-2423465D01*
G01X2988208Y-2423160D01*
G37*
G36*
G01X2966212Y-2494839D02*
G01X2965145Y-2494991D01*
G01X2963621Y-2495144D01*
G01X2961538Y-2495448D01*
G01X2959557Y-2496058D01*
G01X2957881Y-2496668D01*
G01X2956357Y-2497430D01*
G01X2955138Y-2498192D01*
G01X2954071Y-2498801D01*
G01X2953207Y-2499563D01*
G01X2952140Y-2500478D01*
G01X2951074Y-2501494D01*
G01X2950312Y-2502408D01*
G01X2949397Y-2503475D01*
G01X2948635Y-2504542D01*
G01X2948026Y-2505608D01*
G01X2946806Y-2508047D01*
G01X2946197Y-2509723D01*
G01X2945130Y-2512873D01*
G01X2944571Y-2516226D01*
G01X2944419Y-2521966D01*
G01X2944571Y-2528011D01*
G01X2944825Y-2529230D01*
G01X2944978Y-2530297D01*
G01X2945282Y-2531974D01*
G01X2945740Y-2533498D01*
G01X2946044Y-2534869D01*
G01X2946502Y-2536342D01*
G01X2947721Y-2539086D01*
G01X2948330Y-2540305D01*
G01X2949092Y-2541524D01*
G01X2949702Y-2542591D01*
G01X2951531Y-2544826D01*
G01X2952293Y-2545588D01*
G01X2953766Y-2546807D01*
G01X2954833Y-2547722D01*
G01X2956204Y-2548636D01*
G01X2957576Y-2549398D01*
G01X2958795Y-2550008D01*
G01X2960167Y-2550617D01*
G01X2962148Y-2551227D01*
G01X2963621Y-2551684D01*
G01X2965755Y-2551989D01*
G01X2967279Y-2552141D01*
G01X2968346D01*
G01Y-2551379D01*
G01X2968498Y-2550160D01*
G01X2968803Y-2546807D01*
G01X2968955Y-2544674D01*
G01Y-2543048D01*
G01X2968193Y-2542896D01*
G01X2966974Y-2542591D01*
G01X2965602Y-2542286D01*
G01X2963926Y-2541829D01*
G01X2962402Y-2541219D01*
G01X2960319Y-2540152D01*
G01X2958795Y-2538933D01*
G01X2958186Y-2538324D01*
G01X2957576Y-2537562D01*
G01X2956662Y-2536495D01*
G01X2955900Y-2535479D01*
G01X2955290Y-2534412D01*
G01X2954680Y-2533193D01*
G01X2954223Y-2531974D01*
G01X2953360Y-2529230D01*
G01X2953055Y-2528011D01*
G01X2952750Y-2525928D01*
G01X2952598Y-2522423D01*
G01X2952750Y-2518613D01*
G01X2953055Y-2516835D01*
G01X2953360Y-2515311D01*
G01X2953614Y-2514092D01*
G01X2954071Y-2512720D01*
G01X2954680Y-2511349D01*
G01X2955442Y-2509825D01*
G01X2956966Y-2507742D01*
G01X2958186Y-2506523D01*
G01X2959557Y-2505608D01*
G01X2961081Y-2504846D01*
G01X2962402Y-2504389D01*
G01X2963926Y-2504237D01*
G01X2966060Y-2504389D01*
G01X2968041Y-2504846D01*
G01X2969717Y-2505608D01*
G01X2970784Y-2506370D01*
G01X2971495Y-2506980D01*
G01X2972257Y-2507742D01*
G01X2972867Y-2508504D01*
G01X2973476Y-2509571D01*
G01X2974696Y-2511958D01*
G01X2975305Y-2513635D01*
G01X2975762Y-2515006D01*
G01X2976067Y-2516378D01*
G01X2976982Y-2519375D01*
G01X2977439Y-2521356D01*
G01X2977896Y-2522880D01*
G01X2978201Y-2524252D01*
G01X2978658Y-2526233D01*
G01X2979115Y-2527706D01*
G01X2979826Y-2530907D01*
G01X2981046Y-2534869D01*
G01X2981655Y-2536342D01*
G01X2982112Y-2537562D01*
G01X2982570Y-2538628D01*
G01X2983179Y-2539695D01*
G01X2983941Y-2541067D01*
G01X2984703Y-2542134D01*
G01X2985313Y-2543048D01*
G01X2986075Y-2543962D01*
G01X2987599Y-2545436D01*
G01X2988310Y-2546045D01*
G01X2989377Y-2546807D01*
G01X2990596Y-2547569D01*
G01X2991663Y-2548026D01*
G01X2992882Y-2548484D01*
G01X2994406Y-2548941D01*
G01X2995778Y-2549246D01*
G01X2997860Y-2549398D01*
G01X2999994Y-2549246D01*
G01X3001061Y-2549093D01*
G01X3002737Y-2548788D01*
G01X3004718Y-2548179D01*
G01X3006039Y-2547569D01*
G01X3007258Y-2546960D01*
G01X3008630Y-2546198D01*
G01X3010002Y-2545131D01*
G01X3011221Y-2544267D01*
G01X3011983Y-2543505D01*
G01X3012897Y-2542286D01*
G01X3013964Y-2540762D01*
G01X3014675Y-2539543D01*
G01X3015285Y-2538324D01*
G01X3015894Y-2536952D01*
G01X3016809Y-2534260D01*
G01X3017266Y-2532736D01*
G01X3017571Y-2531364D01*
G01X3017876Y-2529230D01*
G01X3018028Y-2524862D01*
G01X3017876Y-2519528D01*
G01X3017571Y-2517445D01*
G01X3016961Y-2514397D01*
G01X3016504Y-2512720D01*
G01X3015894Y-2510892D01*
G01X3015285Y-2509571D01*
G01X3013964Y-2506828D01*
G01X3012897Y-2505304D01*
G01X3011983Y-2504084D01*
G01X3009697Y-2501798D01*
G01X3008935Y-2501189D01*
G01X3008020Y-2500630D01*
G01X3006801Y-2499868D01*
G01X3005480Y-2499106D01*
G01X3003956Y-2498496D01*
G01X3002737Y-2498039D01*
G01X3000299Y-2497430D01*
G01X2998318Y-2497277D01*
G01X2996844Y-2497430D01*
G01X2996692Y-2498039D01*
G01X2996235Y-2504389D01*
G01X2996387Y-2505710D01*
G01X2996997Y-2506370D01*
G01X2998470Y-2506828D01*
G01X3000146Y-2507285D01*
G01X3001823Y-2507894D01*
G01X3003042Y-2508504D01*
G01X3003956Y-2509114D01*
G01X3005480Y-2510282D01*
G01X3006496Y-2511349D01*
G01X3007411Y-2512720D01*
G01X3008020Y-2513787D01*
G01X3008478Y-2514854D01*
G01X3008935Y-2516073D01*
G01X3009392Y-2517902D01*
G01X3009697Y-2519528D01*
G01X3009849Y-2523033D01*
G01X3009697Y-2527402D01*
G01X3009392Y-2529230D01*
G01X3009240Y-2530297D01*
G01X3008935Y-2531516D01*
G01X3008478Y-2532888D01*
G01X3008020Y-2534107D01*
G01X3007258Y-2535326D01*
G01X3006496Y-2536342D01*
G01X3005887Y-2537104D01*
G01X3005176Y-2537866D01*
G01X3004414Y-2538476D01*
G01X3003347Y-2539086D01*
G01X3001975Y-2539695D01*
G01X2999994Y-2540000D01*
G01X2997556Y-2539848D01*
G01X2995778Y-2539390D01*
G01X2994406Y-2538628D01*
G01X2993339Y-2537866D01*
G01X2992577Y-2537104D01*
G01X2991968Y-2536342D01*
G01X2991358Y-2535326D01*
G01X2990748Y-2533802D01*
G01X2990139Y-2532126D01*
G01X2989529Y-2530297D01*
G01X2988920Y-2528316D01*
G01X2988462Y-2526843D01*
G01X2988208Y-2525471D01*
G01X2987751Y-2523490D01*
G01X2986989Y-2520442D01*
G01X2986684Y-2519070D01*
G01X2986227Y-2517140D01*
G01X2985770Y-2515616D01*
G01X2985465Y-2514244D01*
G01X2984551Y-2511196D01*
G01X2984094Y-2509825D01*
G01X2983179Y-2507437D01*
G01X2981960Y-2504999D01*
G01X2981198Y-2503780D01*
G01X2979572Y-2501341D01*
G01X2976982Y-2498801D01*
G01X2975762Y-2497887D01*
G01X2974848Y-2497277D01*
G01X2973629Y-2496668D01*
G01X2972257Y-2496058D01*
G01X2970886Y-2495601D01*
G01X2969717Y-2495296D01*
G01X2967279Y-2494991D01*
G37*
G04 Text End*

G04 PolygonModel Start*
G54D10*
G01X3048132Y-5829993D02*
G01X3048132Y-5979992D01*
G01X3048132Y-5979992D02*
G01X2152025Y-5979992D01*
G01X2152025Y-5829993D02*
G01X2152025Y-5979992D01*
G01X2008876Y-3479997D02*
G01X1699994Y-3479997D01*
G01X2262876Y-3479997D02*
G01X2175104Y-3479997D01*
G01X2516876Y-3479997D02*
G01X2429104Y-3479997D01*
G01X2770874Y-3479997D02*
G01X2683104Y-3479997D01*
G01X3024874Y-3479997D02*
G01X2937101Y-3479997D01*
G01X3499991Y-3555385D02*
G01X3499991Y-3479997D01*
G01X3499991Y-3479997D02*
G01X3191101Y-3479997D01*
G01X3499991Y-3809382D02*
G01X3499991Y-3721612D01*
G01X3499991Y-4063382D02*
G01X3499991Y-3975610D01*
G01X3499991Y-4317382D02*
G01X3499991Y-4229610D01*
G01X3499991Y-4571382D02*
G01X3499991Y-4483610D01*
G01X3499991Y-4825382D02*
G01X3499991Y-4737610D01*
G01X3499991Y-5079379D02*
G01X3499991Y-4991610D01*
G01X3499991Y-5333379D02*
G01X3499991Y-5245607D01*
G01X3499991Y-5587379D02*
G01X3499991Y-5499607D01*
G01X1699994Y-5753610D02*
G01X1699994Y-5829993D01*
G01X1699994Y-5829993D02*
G01X3499991Y-5829993D01*
G01X3499991Y-5829993D02*
G01X3499991Y-5753607D01*
G01X1699994Y-5499610D02*
G01X1699994Y-5587382D01*
G01X1699994Y-5245610D02*
G01X1699994Y-5333382D01*
G01X1699994Y-4991612D02*
G01X1699994Y-5079382D01*
G01X1699994Y-4737612D02*
G01X1699994Y-4825385D01*
G01X1699994Y-4483612D02*
G01X1699994Y-4571385D01*
G01X1699994Y-4229612D02*
G01X1699994Y-4317385D01*
G01X1699994Y-3975612D02*
G01X1699994Y-4063385D01*
G01X1699994Y-3721615D02*
G01X1699994Y-3809385D01*
G01X1699994Y-3479997D02*
G01X1699994Y-3555387D01*
G04 PolygonModel End*

M02*
