G04 Layer: TopLayer*
G04 EasyEDA Pro v2.1.54, 2024-04-03 12:40:51*
G04 Gerber Generator version 0.3*
G04 Scale: 100 percent, Rotated: No, Reflected: No*
G04 Dimensions in millimeters*
G04 Leading zeros omitted, absolute positions, 3 integers and 5 decimals*
%FSLAX35Y35*%
%MOMM*%
%ADD8191C,0.2032*%
%ADD10C,0.254*%
%ADD11R,1.7X1.7*%
%ADD12C,1.7*%
%ADD13C,1.6*%
%ADD14C,3.3060*%
%ADD15C,3.29999*%
%ADD16C,0.61*%
%ADD17C,0.5*%
%ADD18C,0.6*%
G75*


G04 Copper Start*
G36*
G01X1485814Y-5864186D02*
G01X1485814Y-485814D01*
G01X3614186D01*
G01Y-5864186D01*
G01X1485814D01*
G37*
%LPC*%
G36*
G01X3299991Y-5851052D02*
G03X3335805Y-5815238I0J35814D01*
G01Y-4416630D01*
G03X3400000Y-4466314I64195J16630D01*
G03X3439186Y-4453498I0J66314D01*
G01Y-4623557D01*
G03X3433686Y-4650000I60814J-26443D01*
G03X3500000Y-4716314I66314J0D01*
G03X3566314Y-4650000I0J66314D01*
G03X3560814Y-4623557I-66314J0D01*
G01Y-2719000D01*
G03X3543002Y-2675998I-60814J0D01*
G01X3144357Y-2277353D01*
G02X3101814Y-2193931I107258J107258D01*
G01Y-2115000D01*
G03X3066000Y-2079186I-35814J0D01*
G01X2896000D01*
G03X2860186Y-2115000I0J-35814D01*
G01Y-2247182D01*
G01X2852229Y-2239225D01*
G01X2850711Y-2237608D01*
G01X2849912Y-2236633D01*
G01X2849250Y-2235696D01*
G01X2849119Y-2235485D01*
G01X2848931Y-2235143D01*
G01X2848878Y-2235033D01*
G01X2848602Y-2234358D01*
G01X2848424Y-2233814D01*
G01X2848244Y-2233098D01*
G01X2848090Y-2232277D01*
G01X2847865Y-2230435D01*
G01X2847697Y-2227527D01*
G01X2847828Y-2214125D01*
G01Y-2214124D01*
G01X2847830Y-2213921D01*
G01X2847886Y-2200195D01*
G01X2847887Y-2200048D01*
G01X2847851Y-2198452D01*
G01X2847762Y-2196450D01*
G03X2847577Y-2192434I-120762J-3551D01*
G03X2727000Y-2079186I-120577J-7566D01*
G03X2684666Y-2086846I0J-120814D01*
G01X2915467Y-1856045D01*
G01X2917245Y-1854411D01*
G01X2918164Y-1853707D01*
G01X2918843Y-1853282D01*
G01X2919420Y-1852994D01*
G01X2920069Y-1852742D01*
G01X2920962Y-1852482D01*
G01X2922244Y-1852215D01*
G01X2923825Y-1851993D01*
G01X2927520Y-1851710D01*
G01X2945859Y-1851497D01*
G01X2946737Y-1851476D01*
G01X2946738D01*
G01X2951646Y-1851299D01*
G03X2957265Y-1851083I-1634J115802D01*
G03X3065826Y-1735496I-7253J115587D01*
G03X2950012Y-1619683I-115814J0D01*
G03X2834426Y-1728244I0J-115814D01*
G03X2834200Y-1734905I115587J-7253D01*
G01X2834002Y-1741246D01*
G01X2833987Y-1741944D01*
G01X2833798Y-1757986D01*
G01X2833516Y-1761683D01*
G01X2833293Y-1763265D01*
G01X2833026Y-1764547D01*
G01X2832766Y-1765440D01*
G01X2832515Y-1766088D01*
G01X2832226Y-1766666D01*
G01X2831801Y-1767345D01*
G01X2831097Y-1768263D01*
G01X2829463Y-1770041D01*
G01X2518487Y-2081018D01*
G01X2516176Y-2083184D01*
G01X2515457Y-2083782D01*
G01X2514912Y-2084189D01*
G01X2514366Y-2084147D01*
G01X2510803Y-2083649D01*
G01X2496094Y-2081022D01*
G01X2494240Y-2080740D01*
G01X2487500Y-2079898D01*
G01X2485442Y-2079701D01*
G01X2479621Y-2079312D01*
G01X2477405Y-2079233D01*
G01X2476132Y-2079227D01*
G03X2473000Y-2079186I-3132J-120773D01*
G01X2470994Y-2079203D01*
G01X2470981D01*
G01X2469355Y-2079240D01*
G01X2469261Y-2079244D01*
G03X2465434Y-2079423I3739J-120756D01*
G03X2352423Y-2192434I7566J-120577D01*
G03X2352190Y-2199069I120577J-7566D01*
G01X2352069Y-2202762D01*
G01X2352050Y-2203936D01*
G01X2352054Y-2204499D01*
G01X2352360Y-2223948D01*
G01X2352258Y-2228757D01*
G01X2352087Y-2230985D01*
G01X2351936Y-2232135D01*
G01X2351756Y-2233098D01*
G01X2351576Y-2233814D01*
G01X2351398Y-2234358D01*
G01X2351122Y-2235033D01*
G01X2351069Y-2235143D01*
G01X2350881Y-2235485D01*
G01X2350751Y-2235696D01*
G01X2350088Y-2236633D01*
G01X2349289Y-2237608D01*
G01X2347771Y-2239225D01*
G01X2318565Y-2268432D01*
G03X2339814Y-2200000I-99565J68431D01*
G03X2219000Y-2079186I-120814J0D01*
G03X2098186Y-2200000I0J-120814D01*
G03X2219000Y-2320814I120814J0D01*
G03X2287432Y-2299565I0J120814D01*
G01X1756998Y-2829998D01*
G03X1739186Y-2873000I43002J-43002D01*
G01Y-5594814D01*
G01X1706999Y-5627001D01*
G03X1689187Y-5670003I43002J-43002D01*
G03X1750001Y-5730817I60814J0D01*
G03X1793003Y-5713005I0J60814D01*
G01X1843002Y-5663006D01*
G03X1860814Y-5620004I-43002J43002D01*
G01Y-2898190D01*
G01X2433775Y-2325229D01*
G01X2435392Y-2323711D01*
G01X2436367Y-2322912D01*
G01X2437304Y-2322250D01*
G01X2437516Y-2322119D01*
G01X2437858Y-2321931D01*
G01X2437967Y-2321878D01*
G01X2438643Y-2321602D01*
G01X2439186Y-2321424D01*
G01X2439902Y-2321244D01*
G01X2440723Y-2321090D01*
G01X2442565Y-2320865D01*
G01X2445473Y-2320697D01*
G01X2458876Y-2320828D01*
G01X2459079Y-2320830D01*
G01X2472805Y-2320886D01*
G01X2472953Y-2320887D01*
G01X2474548Y-2320851D01*
G01X2476551Y-2320762D01*
G03X2480566Y-2320577I-3551J120762D01*
G03X2593549Y-2207989I-7566J120577D01*
G01X2594529Y-2196416D01*
G01X2595456Y-2189628D01*
G01X2596311Y-2185097D01*
G01X2597337Y-2180914D01*
G01X2598568Y-2177013D01*
G01X2599317Y-2175073D01*
G01X2600169Y-2173191D01*
G01X2601034Y-2171557D01*
G01X2601902Y-2170156D01*
G01X2602769Y-2168959D01*
G01X2603885Y-2167647D01*
G01X2604344Y-2167168D01*
G01X2613846Y-2157666D01*
G03X2606186Y-2200000I113154J-42334D01*
G03X2719434Y-2320577I120814J0D01*
G03X2726069Y-2320810I7566J120577D01*
G01X2729762Y-2320931D01*
G01X2730936Y-2320951D01*
G01X2731499Y-2320946D01*
G01X2750948Y-2320640D01*
G01X2755757Y-2320742D01*
G01X2757985Y-2320913D01*
G01X2759135Y-2321064D01*
G01X2760098Y-2321244D01*
G01X2760814Y-2321424D01*
G01X2761358Y-2321602D01*
G01X2762033Y-2321878D01*
G01X2762143Y-2321931D01*
G01X2762485Y-2322119D01*
G01X2762696Y-2322250D01*
G01X2763633Y-2322912D01*
G01X2764608Y-2323711D01*
G01X2766225Y-2325229D01*
G01X3339186Y-2898190D01*
G01Y-4373557D01*
G03X3335805Y-4383370I60814J-26443D01*
G01Y-3645237D01*
G03X3299991Y-3609423I-35814J0D01*
G01X1899994D01*
G03X1864180Y-3645237I0J-35814D01*
G01Y-5815238D01*
G03X1899994Y-5851052I35814J0D01*
G01X3299991D01*
G37*
G36*
G01X3256996Y-1665317D02*
G03X3457810Y-1464504I0J200814D01*
G03X3256996Y-1263690I-200814J0D01*
G03X3056183Y-1464504I0J-200814D01*
G03X3256996Y-1665317I200814J0D01*
G37*
G36*
G01X1943004Y-1665317D02*
G03X2143817Y-1464504I0J200814D01*
G03X1943004Y-1263690I-200814J0D01*
G03X1742190Y-1464504I0J-200814D01*
G03X1943004Y-1665317I200814J0D01*
G37*
G36*
G01X2700000Y-1851310D02*
G03X2815814Y-1735496I0J115814D01*
G03X2700000Y-1619683I-115814J0D01*
G03X2600000Y-1677076I0J-115814D01*
G03X2500000Y-1619683I-100000J-58420D01*
G03X2384186Y-1735496I0J-115814D01*
G03X2500000Y-1851310I115814J0D01*
G03X2600000Y-1793916I0J115814D01*
G03X2700000Y-1851310I100000J58420D01*
G37*
G36*
G01X2250013Y-1851310D02*
G03X2365827Y-1735496I0J115814D01*
G03X2250013Y-1619683I-115814J0D01*
G03X2134200Y-1735496I0J-115814D01*
G03X2250013Y-1851310I115814J0D01*
G37*
%LPD*%
G36*
G01X3439186Y-2826182D02*
G01X2933818Y-2320814D01*
G01X2974931D01*
G02X3058353Y-2363357I-23836J-149801D01*
G01X3439186Y-2744190D01*
G01Y-2826182D01*
G37*
G54D8191*
G01X1485814Y-5864186D02*
G01X1485814Y-485814D01*
G01X3614186D01*
G01Y-5864186D01*
G01X1485814D01*
G01X3299991Y-5851052D02*
G03X3335805Y-5815238I0J35814D01*
G01Y-4416630D01*
G03X3400000Y-4466314I64195J16630D01*
G03X3439186Y-4453498I0J66314D01*
G01Y-4623557D01*
G03X3433686Y-4650000I60814J-26443D01*
G03X3500000Y-4716314I66314J0D01*
G03X3566314Y-4650000I0J66314D01*
G03X3560814Y-4623557I-66314J0D01*
G01Y-2719000D01*
G03X3543002Y-2675998I-60814J0D01*
G01X3144357Y-2277353D01*
G02X3101814Y-2193931I107258J107258D01*
G01Y-2115000D01*
G03X3066000Y-2079186I-35814J0D01*
G01X2896000D01*
G03X2860186Y-2115000I0J-35814D01*
G01Y-2247182D01*
G01X2852229Y-2239225D01*
G01X2850711Y-2237608D01*
G01X2849912Y-2236633D01*
G01X2849250Y-2235696D01*
G01X2849119Y-2235485D01*
G01X2848931Y-2235143D01*
G01X2848878Y-2235033D01*
G01X2848602Y-2234358D01*
G01X2848424Y-2233814D01*
G01X2848244Y-2233098D01*
G01X2848090Y-2232277D01*
G01X2847865Y-2230435D01*
G01X2847697Y-2227527D01*
G01X2847828Y-2214125D01*
G01Y-2214124D01*
G01X2847830Y-2213921D01*
G01X2847886Y-2200195D01*
G01X2847887Y-2200048D01*
G01X2847851Y-2198452D01*
G01X2847762Y-2196450D01*
G03X2847577Y-2192434I-120762J-3551D01*
G03X2727000Y-2079186I-120577J-7566D01*
G03X2684666Y-2086846I0J-120814D01*
G01X2915467Y-1856045D01*
G01X2917245Y-1854411D01*
G01X2918164Y-1853707D01*
G01X2918843Y-1853282D01*
G01X2919420Y-1852994D01*
G01X2920069Y-1852742D01*
G01X2920962Y-1852482D01*
G01X2922244Y-1852215D01*
G01X2923825Y-1851993D01*
G01X2927520Y-1851710D01*
G01X2945859Y-1851497D01*
G01X2946737Y-1851476D01*
G01X2946738D01*
G01X2951646Y-1851299D01*
G03X2957265Y-1851083I-1634J115802D01*
G03X3065826Y-1735496I-7253J115587D01*
G03X2950012Y-1619683I-115814J0D01*
G03X2834426Y-1728244I0J-115814D01*
G03X2834200Y-1734905I115587J-7253D01*
G01X2834002Y-1741246D01*
G01X2833987Y-1741944D01*
G01X2833798Y-1757986D01*
G01X2833516Y-1761683D01*
G01X2833293Y-1763265D01*
G01X2833026Y-1764547D01*
G01X2832766Y-1765440D01*
G01X2832515Y-1766088D01*
G01X2832226Y-1766666D01*
G01X2831801Y-1767345D01*
G01X2831097Y-1768263D01*
G01X2829463Y-1770041D01*
G01X2518487Y-2081018D01*
G01X2516176Y-2083184D01*
G01X2515457Y-2083782D01*
G01X2514912Y-2084189D01*
G01X2514366Y-2084147D01*
G01X2510803Y-2083649D01*
G01X2496094Y-2081022D01*
G01X2494240Y-2080740D01*
G01X2487500Y-2079898D01*
G01X2485442Y-2079701D01*
G01X2479621Y-2079312D01*
G01X2477405Y-2079233D01*
G01X2476132Y-2079227D01*
G03X2473000Y-2079186I-3132J-120773D01*
G01X2470994Y-2079203D01*
G01X2470981D01*
G01X2469355Y-2079240D01*
G01X2469261Y-2079244D01*
G03X2465434Y-2079423I3739J-120756D01*
G03X2352423Y-2192434I7566J-120577D01*
G03X2352190Y-2199069I120577J-7566D01*
G01X2352069Y-2202762D01*
G01X2352050Y-2203936D01*
G01X2352054Y-2204499D01*
G01X2352360Y-2223948D01*
G01X2352258Y-2228757D01*
G01X2352087Y-2230985D01*
G01X2351936Y-2232135D01*
G01X2351756Y-2233098D01*
G01X2351576Y-2233814D01*
G01X2351398Y-2234358D01*
G01X2351122Y-2235033D01*
G01X2351069Y-2235143D01*
G01X2350881Y-2235485D01*
G01X2350751Y-2235696D01*
G01X2350088Y-2236633D01*
G01X2349289Y-2237608D01*
G01X2347771Y-2239225D01*
G01X2318565Y-2268432D01*
G03X2339814Y-2200000I-99565J68431D01*
G03X2219000Y-2079186I-120814J0D01*
G03X2098186Y-2200000I0J-120814D01*
G03X2219000Y-2320814I120814J0D01*
G03X2287432Y-2299565I0J120814D01*
G01X1756998Y-2829998D01*
G03X1739186Y-2873000I43002J-43002D01*
G01Y-5594814D01*
G01X1706999Y-5627001D01*
G03X1689187Y-5670003I43002J-43002D01*
G03X1750001Y-5730817I60814J0D01*
G03X1793003Y-5713005I0J60814D01*
G01X1843002Y-5663006D01*
G03X1860814Y-5620004I-43002J43002D01*
G01Y-2898190D01*
G01X2433775Y-2325229D01*
G01X2435392Y-2323711D01*
G01X2436367Y-2322912D01*
G01X2437304Y-2322250D01*
G01X2437516Y-2322119D01*
G01X2437858Y-2321931D01*
G01X2437967Y-2321878D01*
G01X2438643Y-2321602D01*
G01X2439186Y-2321424D01*
G01X2439902Y-2321244D01*
G01X2440723Y-2321090D01*
G01X2442565Y-2320865D01*
G01X2445473Y-2320697D01*
G01X2458876Y-2320828D01*
G01X2459079Y-2320830D01*
G01X2472805Y-2320886D01*
G01X2472953Y-2320887D01*
G01X2474548Y-2320851D01*
G01X2476551Y-2320762D01*
G03X2480566Y-2320577I-3551J120762D01*
G03X2593549Y-2207989I-7566J120577D01*
G01X2594529Y-2196416D01*
G01X2595456Y-2189628D01*
G01X2596311Y-2185097D01*
G01X2597337Y-2180914D01*
G01X2598568Y-2177013D01*
G01X2599317Y-2175073D01*
G01X2600169Y-2173191D01*
G01X2601034Y-2171557D01*
G01X2601902Y-2170156D01*
G01X2602769Y-2168959D01*
G01X2603885Y-2167647D01*
G01X2604344Y-2167168D01*
G01X2613846Y-2157666D01*
G03X2606186Y-2200000I113154J-42334D01*
G03X2719434Y-2320577I120814J0D01*
G03X2726069Y-2320810I7566J120577D01*
G01X2729762Y-2320931D01*
G01X2730936Y-2320951D01*
G01X2731499Y-2320946D01*
G01X2750948Y-2320640D01*
G01X2755757Y-2320742D01*
G01X2757985Y-2320913D01*
G01X2759135Y-2321064D01*
G01X2760098Y-2321244D01*
G01X2760814Y-2321424D01*
G01X2761358Y-2321602D01*
G01X2762033Y-2321878D01*
G01X2762143Y-2321931D01*
G01X2762485Y-2322119D01*
G01X2762696Y-2322250D01*
G01X2763633Y-2322912D01*
G01X2764608Y-2323711D01*
G01X2766225Y-2325229D01*
G01X3339186Y-2898190D01*
G01Y-4373557D01*
G03X3335805Y-4383370I60814J-26443D01*
G01Y-3645237D01*
G03X3299991Y-3609423I-35814J0D01*
G01X1899994D01*
G03X1864180Y-3645237I0J-35814D01*
G01Y-5815238D01*
G03X1899994Y-5851052I35814J0D01*
G01X3299991D01*
G01X3256996Y-1665317D02*
G03X3457810Y-1464504I0J200814D01*
G03X3256996Y-1263690I-200814J0D01*
G03X3056183Y-1464504I0J-200814D01*
G03X3256996Y-1665317I200814J0D01*
G01X1943004Y-1665317D02*
G03X2143817Y-1464504I0J200814D01*
G03X1943004Y-1263690I-200814J0D01*
G03X1742190Y-1464504I0J-200814D01*
G03X1943004Y-1665317I200814J0D01*
G01X2700000Y-1851310D02*
G03X2815814Y-1735496I0J115814D01*
G03X2700000Y-1619683I-115814J0D01*
G03X2600000Y-1677076I0J-115814D01*
G03X2500000Y-1619683I-100000J-58420D01*
G03X2384186Y-1735496I0J-115814D01*
G03X2500000Y-1851310I115814J0D01*
G03X2600000Y-1793916I0J115814D01*
G03X2700000Y-1851310I100000J58420D01*
G01X2250013Y-1851310D02*
G03X2365827Y-1735496I0J115814D01*
G03X2250013Y-1619683I-115814J0D01*
G03X2134200Y-1735496I0J-115814D01*
G03X2250013Y-1851310I115814J0D01*
G01X3439186Y-2826182D02*
G01X2933818Y-2320814D01*
G01X2974931D01*
G02X3058353Y-2363357I-23836J-149801D01*
G01X3439186Y-2744190D01*
G01Y-2826182D01*
G54D10*
G01X1943004Y-1464504D02*
G01X2133911Y-1464504D01*
G01X1943004Y-1464504D02*
G01X1752096Y-1464504D01*
G01X1943004Y-1464504D02*
G01X1943004Y-1655411D01*
G01X1943004Y-1464504D02*
G01X1943004Y-1273596D01*
G01X2219000Y-2200000D02*
G01X2329908Y-2200000D01*
G01X2219000Y-2200000D02*
G01X2108092Y-2200000D01*
G01X2219000Y-2200000D02*
G01X2219000Y-2310908D01*
G01X2219000Y-2200000D02*
G01X2219000Y-2089092D01*
G01X2250013Y-1735496D02*
G01X2355921Y-1735496D01*
G01X2250013Y-1735496D02*
G01X2144106Y-1735496D01*
G01X2250013Y-1735496D02*
G01X2250013Y-1841404D01*
G01X2250013Y-1735496D02*
G01X2250013Y-1629589D01*
G01X3256996Y-1464504D02*
G01X3447904Y-1464504D01*
G01X3256996Y-1464504D02*
G01X3066089Y-1464504D01*
G01X3256996Y-1464504D02*
G01X3256996Y-1655411D01*
G01X3256996Y-1464504D02*
G01X3256996Y-1273596D01*
G04 Copper End*

G04 Tear Start*
G36*
G01X3083678Y-2338033D02*
G01X3119033Y-2302678D01*
G02X3066000Y-2196612I132582J132582D01*
G01X2977612Y-2285000D01*
G02X3083678Y-2338033I-26516J-185615D01*
G37*
G36*
G01X2791150Y-2299505D02*
G01X2826505Y-2264150D01*
G01X2823777Y-2261244D01*
G01X2821402Y-2258347D01*
G01X2819357Y-2255452D01*
G01X2818165Y-2253520D01*
G01X2817101Y-2251584D01*
G01X2816160Y-2249642D01*
G01X2814961Y-2246713D01*
G01X2813997Y-2243760D01*
G01X2813245Y-2240775D01*
G01X2812679Y-2237751D01*
G01X2812177Y-2233649D01*
G01X2811872Y-2228385D01*
G01X2812016Y-2213773D01*
G01X2812073Y-2200047D01*
G01X2811833Y-2194677D01*
G01X2721677Y-2284833D01*
G01X2730936Y-2285137D01*
G01X2751045Y-2284820D01*
G01X2757511Y-2284957D01*
G01X2761683Y-2285278D01*
G01X2764751Y-2285679D01*
G01X2767775Y-2286244D01*
G01X2770760Y-2286997D01*
G01X2773713Y-2287961D01*
G01X2776642Y-2289160D01*
G01X2778584Y-2290101D01*
G01X2780520Y-2291165D01*
G01X2782452Y-2292357D01*
G01X2785347Y-2294402D01*
G01X2788244Y-2296777D01*
G01X2791150Y-2299505D01*
G37*
G36*
G01X2373495Y-2264150D02*
G01X2408850Y-2299505D01*
G01X2411756Y-2296777D01*
G01X2414653Y-2294402D01*
G01X2417548Y-2292357D01*
G01X2419480Y-2291165D01*
G01X2421416Y-2290101D01*
G01X2423358Y-2289160D01*
G01X2426287Y-2287961D01*
G01X2429241Y-2286997D01*
G01X2432226Y-2286244D01*
G01X2435249Y-2285679D01*
G01X2439351Y-2285177D01*
G01X2444615Y-2284872D01*
G01X2459227Y-2285016D01*
G01X2472953Y-2285073D01*
G01X2478323Y-2284833D01*
G01X2388167Y-2194677D01*
G01X2387863Y-2203936D01*
G01X2388180Y-2224045D01*
G01X2388043Y-2230511D01*
G01X2387722Y-2234683D01*
G01X2387321Y-2237751D01*
G01X2386756Y-2240775D01*
G01X2386003Y-2243760D01*
G01X2385039Y-2246713D01*
G01X2383840Y-2249642D01*
G01X2382899Y-2251584D01*
G01X2381835Y-2253520D01*
G01X2380643Y-2255452D01*
G01X2378598Y-2258347D01*
G01X2376223Y-2261244D01*
G01X2373495Y-2264150D01*
G37*
G36*
G01X2578760Y-2142104D02*
G01X2543404Y-2106749D01*
G01X2539896Y-2110038D01*
G01X2537629Y-2111924D01*
G01X2535411Y-2113578D01*
G01X2533237Y-2115013D01*
G01X2531101Y-2116240D01*
G01X2528998Y-2117272D01*
G01X2526920Y-2118120D01*
G01X2524862Y-2118798D01*
G01X2522818Y-2119317D01*
G01X2520783Y-2119689D01*
G01X2518750Y-2119926D01*
G01X2516712Y-2120041D01*
G01X2513636Y-2120010D01*
G01X2510518Y-2119772D01*
G01X2505173Y-2119024D01*
G01X2489796Y-2116278D01*
G01X2483056Y-2115435D01*
G01X2477235Y-2115047D01*
G01X2470981Y-2115017D01*
G01X2467677Y-2115167D01*
G01X2557833Y-2205323D01*
G01X2558920Y-2192481D01*
G01X2560094Y-2183883D01*
G01X2561297Y-2177505D01*
G01X2562833Y-2171247D01*
G01X2564753Y-2165163D01*
G01X2566271Y-2161230D01*
G01X2567999Y-2157413D01*
G01X2569950Y-2153728D01*
G01X2572140Y-2150192D01*
G01X2574584Y-2146820D01*
G01X2577297Y-2143628D01*
G01X2578760Y-2142104D01*
G37*
G36*
G01X2378308Y-2259337D02*
G01X2413663Y-2294692D01*
G01X2417179Y-2291460D01*
G01X2420717Y-2288751D01*
G01X2424286Y-2286517D01*
G01X2427897Y-2284712D01*
G01X2431559Y-2283292D01*
G01X2435282Y-2282209D01*
G01X2439076Y-2281418D01*
G01X2442950Y-2280873D01*
G01X2448934Y-2280416D01*
G01X2468431Y-2280189D01*
G01X2478010Y-2279843D01*
G01X2393157Y-2194990D01*
G01X2392786Y-2206868D01*
G01X2392584Y-2224066D01*
G01X2392127Y-2230050D01*
G01X2391582Y-2233924D01*
G01X2390791Y-2237718D01*
G01X2389708Y-2241441D01*
G01X2388288Y-2245103D01*
G01X2386483Y-2248714D01*
G01X2384249Y-2252284D01*
G01X2381540Y-2255821D01*
G01X2378308Y-2259337D01*
G37*
G36*
G01X2573946Y-2146917D02*
G01X2538591Y-2111562D01*
G01X2535354Y-2114598D01*
G01X2533256Y-2116345D01*
G01X2531199Y-2117881D01*
G01X2529180Y-2119220D01*
G01X2527192Y-2120371D01*
G01X2525229Y-2121346D01*
G01X2523289Y-2122155D01*
G01X2521363Y-2122809D01*
G01X2519449Y-2123318D01*
G01X2517540Y-2123695D01*
G01X2515631Y-2123949D01*
G01X2513718Y-2124092D01*
G01X2510827Y-2124120D01*
G01X2507895Y-2123959D01*
G01X2502873Y-2123369D01*
G01X2488484Y-2121064D01*
G01X2482213Y-2120349D01*
G01X2476816Y-2120025D01*
G01X2471036Y-2120017D01*
G01X2467990Y-2120157D01*
G01X2552843Y-2205010D01*
G01X2553532Y-2197422D01*
G01X2554697Y-2189574D01*
G01X2556378Y-2181644D01*
G01X2558002Y-2175747D01*
G01X2559957Y-2169978D01*
G01X2562259Y-2164410D01*
G01X2563995Y-2160847D01*
G01X2565898Y-2157427D01*
G01X2567973Y-2154175D01*
G01X2570225Y-2151111D01*
G01X2572659Y-2148258D01*
G01X2573946Y-2146917D01*
G37*
G36*
G01X2786337Y-2294692D02*
G01X2821692Y-2259337D01*
G01X2818460Y-2255821D01*
G01X2815751Y-2252284D01*
G01X2813517Y-2248714D01*
G01X2811712Y-2245103D01*
G01X2810292Y-2241441D01*
G01X2809209Y-2237718D01*
G01X2808418Y-2233924D01*
G01X2807873Y-2230050D01*
G01X2807416Y-2224066D01*
G01X2807189Y-2204569D01*
G01X2806843Y-2194990D01*
G01X2721990Y-2279843D01*
G01X2733868Y-2280214D01*
G01X2751066Y-2280416D01*
G01X2757050Y-2280873D01*
G01X2760924Y-2281418D01*
G01X2764718Y-2282209D01*
G01X2768441Y-2283292D01*
G01X2772103Y-2284712D01*
G01X2775714Y-2286517D01*
G01X2779284Y-2288751D01*
G01X2782821Y-2291460D01*
G01X2786337Y-2294692D01*
G37*
G36*
G01X3040337Y-2294692D02*
G01X3075692Y-2259337D01*
G01X3072460Y-2255821D01*
G01X3069751Y-2252284D01*
G01X3067517Y-2248714D01*
G01X3065712Y-2245103D01*
G01X3064292Y-2241441D01*
G01X3063209Y-2237718D01*
G01X3062418Y-2233924D01*
G01X3061873Y-2230050D01*
G01X3061416Y-2224066D01*
G01X3061189Y-2204569D01*
G01X3060843Y-2194990D01*
G01X2975990Y-2279843D01*
G01X2987868Y-2280214D01*
G01X3005066Y-2280416D01*
G01X3011050Y-2280873D01*
G01X3014924Y-2281418D01*
G01X3018718Y-2282209D01*
G01X3022441Y-2283292D01*
G01X3026103Y-2284712D01*
G01X3029714Y-2286517D01*
G01X3033284Y-2288751D01*
G01X3036821Y-2291460D01*
G01X3040337Y-2294692D01*
G37*
G36*
G01X2855320Y-1794833D02*
G01X2890675Y-1830188D01*
G01X2894191Y-1826957D01*
G01X2897729Y-1824247D01*
G01X2901298Y-1822013D01*
G01X2904909Y-1820209D01*
G01X2908571Y-1818788D01*
G01X2912294Y-1817706D01*
G01X2916088Y-1816915D01*
G01X2919962Y-1816369D01*
G01X2925946Y-1815912D01*
G01X2945443Y-1815685D01*
G01X2955022Y-1815339D01*
G01X2870169Y-1730487D01*
G01X2869798Y-1742364D01*
G01X2869596Y-1759563D01*
G01X2869139Y-1765546D01*
G01X2868594Y-1769421D01*
G01X2867803Y-1773214D01*
G01X2866720Y-1776938D01*
G01X2865300Y-1780600D01*
G01X2863495Y-1784211D01*
G01X2861261Y-1787780D01*
G01X2858552Y-1791317D01*
G01X2855320Y-1794833D01*
G37*
G04 Tear End*

G04 Pad Start*
G54D11*
G01X2981000Y-2200000D03*
G54D12*
G01X2727000Y-2200000D03*
G01X2473000Y-2200000D03*
G01X2219000Y-2200000D03*
G54D13*
G01X2219000Y-2200000D03*
G01X2473000Y-2200000D03*
G01X2727000Y-2200000D03*
G01X2981000Y-2200000D03*
G01X2950012Y-1735496D03*
G01X2700000Y-1735496D03*
G01X2500000Y-1735496D03*
G01X2250014Y-1735496D03*
G54D15*
G01X3256997Y-1464504D03*
G01X1943004Y-1464504D03*
G04 Pad End*

G04 Via Start*
G54D16*
G01X3500000Y-4650000D03*
G01X3400000Y-4400000D03*
G54D17*
G01X1750001Y-5670003D03*
G54D18*
G01X1950000Y-3300000D03*
G01X3250000Y-3300000D03*
G01X2600000Y-2400000D03*
G01X1600000Y-600000D03*
G01X3500000Y-600000D03*
G01X2600000Y-600000D03*
G01X1600000Y-1500000D03*
G01X2600000Y-1500000D03*
G01X3500000Y-2100000D03*
G01X2900000Y-2000000D03*
G01X1600000Y-2000000D03*
G01X1900000Y-2400000D03*
G01X2600000Y-2900000D03*
G54D17*
G01X3060002Y-2410001D03*
G01X3420002Y-2770002D03*
G01X1550000Y-5800000D03*
G01X3550000Y-5800000D03*
G01X3550000Y-4800000D03*
G01X3550000Y-5300000D03*
G01X1550000Y-5300000D03*
G01X1550000Y-4800000D03*
G01X1550000Y-4250000D03*
G01X1550000Y-3950000D03*
G04 Via End*

G04 Track Start*
G01X3500000Y-4650000D02*
G01X3500000Y-2719000D01*
G01X2981000Y-2200000D01*
G01X3400000Y-4400000D02*
G01X3400000Y-2873000D01*
G01X2727000Y-2200000D01*
G01X2473000Y-2200000D02*
G01X1800000Y-2873000D01*
G01X1750001Y-5670003D02*
G01X1800000Y-5620004D01*
G01Y-2873000D01*
G01X2950012Y-1735496D02*
G01X2485508Y-2200000D01*
G01X2473000D01*
G04 Track End*

M02*
